<svg id="Слой_1" data-name="Слой 1" xmlns="http://www.w3.org/2000/svg" xmlns:xlink="http://www.w3.org/1999/xlink" viewBox="0 0 841 416"><defs><style>.cls-1,.cls-4,.cls-7{fill:none;}.cls-2,.cls-9{fill:#f4e7d7;}.cls-3{clip-path:url(#clip-path);}.cls-4,.cls-7,.cls-9{stroke:#300016;}.cls-4,.cls-7{stroke-linecap:round;stroke-linejoin:round;}.cls-4{stroke-width:3.74px;}.cls-5{fill:#f43735;}.cls-10,.cls-11,.cls-6{fill:#300016;}.cls-7{stroke-width:2.73px;}.cls-8{fill:#fff;}.cls-9{stroke-miterlimit:10;stroke-width:5.01px;}.cls-10{font-size:192.07px;}.cls-10,.cls-11{font-family:Luam-Regular, Luam;}.cls-11{font-size:141.54px;}</style><clipPath id="clip-path"><rect class="cls-1" x="44.43" y="35.89" width="224.54" height="224.54"/></clipPath></defs><title>Logo</title><rect class="cls-2" width="841" height="416"/><g class="cls-3"><path class="cls-4" d="M136.86,162c4.85,4.64,10.57,8.79,17.3,9.37,7.06.58,13.38-2.9,18.69-7.49l1.49-1.33"/></g><g class="cls-3"><path class="cls-5" d="M159.77,150.39c-3.76-.73-4.16.54-4.16.54s-.4-1.28-4.16-.54-5.32.65-6.82.31c0,0,4.52,6.53,11,6.45,6.47.08,11-6.45,11-6.45C165.08,151,163.53,151.13,159.77,150.39Z"/></g><path class="cls-4" d="M136.34,162.59s3,15.22-9.06,17.56-36.67,2-45,10.37"/><g class="cls-3"><ellipse class="cls-4" cx="189.35" cy="144.66" rx="4.05" ry="5.5"/></g><g class="cls-3"><path class="cls-4" d="M157.16,102.88c2.93-2.62,6.86-7.23,10.86-7.64,8-.81,18.14,7.8,19.13,15.76.38,3.08-.91,6-1.45,9-.58,3.2-.28,6.68-.4,9.93-.34,8.62.91,19.63-11,32.67-.65,4.34-2.64,10.89-.57,15.22,1.17,2.45,3.53,4,5.87,5.22a31.78,31.78,0,0,1,8.75,6.28,10,10,0,0,1,2.15,3.19,5.1,5.1,0,0,1,0,3.82c-.87,2-2.64,3.19-3.43,5.3a19.83,19.83,0,0,0-.69,10.69,20.57,20.57,0,0,0,3.73,8.18c4,5.48-1.22,12-1.22,12,2.85-1.28,8-7.49,7.17-12.19s-3.47-7.7,5.54-17.11c4.44-4.63,6.18-11.84,5.31-18.43-.89-6.8-4.56-12.93-10.91-14.89-12.51-3.86-7.1-19.75-7.1-19.75"/></g><g class="cls-3"><path class="cls-4" d="M157.16,102.88c-2.93-2.62-9.45-7.23-13.45-7.64-8-.81-18.14,7.8-19.13,15.76-.38,3.08.91,6,1.45,9,.58,3.2.28,6.68.4,9.93.34,8.62-.91,19.63,11,32.67"/></g><g class="cls-3"><path class="cls-4" d="M157.44,92.69v0C164.06,77.33,180.28,82,180.28,82c5.26,1,8.93,4.83,11.45,9.22,1.74,3.09,2.66,3.53,4.1,6.71,1.21,2.61,3.09,4.73,4.54,7.2a32.23,32.23,0,0,1,4.39,13.33c.77,9.27-5.8,15.94-12.6,22.26"/></g><g class="cls-3"><path class="cls-4" d="M119.44,140.69c-6.81-6.33-13.38-13-12.6-22.26a32.23,32.23,0,0,1,4.39-13.33c1.45-2.46,3.33-4.59,4.54-7.2,1.45-3.19,2.37-3.62,4.1-6.71,2.51-4.39,6.18-8.21,11.45-9.22,0,0,19.51-4.59,26.12,10.72"/></g><g class="cls-3"><ellipse class="cls-4" cx="123.34" cy="144.66" rx="4.05" ry="5.5"/></g><g class="cls-3"><path class="cls-4" d="M183.35,82s-1.54-12.23-12.48-14-10.7-8.37-25.74,0"/></g><g class="cls-3"><path class="cls-4" d="M132.77,81.36S134.2,69.75,145.13,68"/></g><g class="cls-3"><path class="cls-4" d="M168,95.24s8.83-5.12,28.36,3.73"/></g><g class="cls-3"><path class="cls-4" d="M145.13,95.24s-15.53-6.83-31.06,5.59"/></g><g class="cls-3"><path class="cls-4" d="M187.15,111a12.8,12.8,0,0,0,6.25,9.09c5.8,3.57,7.68,11.42,5.08,14.21"/></g><g class="cls-3"><path class="cls-4" d="M124.42,111a12.8,12.8,0,0,1-6.25,9.09c-5.8,3.57-7.68,11.42-5.08,14.21"/></g><g class="cls-3"><path class="cls-6" d="M162.42,117.22a15,15,0,0,1,2.78-.42c1.71-.11,3.7.23,5.62.26a12.18,12.18,0,0,1,3.07.42c.94.24,1.77.53,2.48.78l2.35.86-2.48-.32c-.74-.09-1.6-.18-2.51-.21a10.62,10.62,0,0,0-2.75.25c-2,.47-4,.65-5.28,1.08a11.67,11.67,0,0,0-2,.86,1.89,1.89,0,1,1-1.28-3.57Z"/></g><g class="cls-3"><path class="cls-6" d="M148.56,120.79a11.67,11.67,0,0,0-2-.86c-1.24-.43-3.25-.61-5.28-1.08a10.62,10.62,0,0,0-2.75-.25c-.91,0-1.77.12-2.51.21l-2.48.32,2.35-.86c.71-.25,1.55-.54,2.48-.78a12.18,12.18,0,0,1,3.07-.42c1.92,0,3.91-.37,5.62-.26a15,15,0,0,1,2.78.42,1.89,1.89,0,0,1-1.28,3.57Z"/></g><g class="cls-3"><path class="cls-7" d="M152.71,141.71s3,3.12,5.79,0"/></g><g class="cls-3"><path class="cls-6" d="M179.09,125.57a7.17,7.17,0,0,0,1.81-2.62s-2.19,2-3.62,2"/></g><g class="cls-3"><path class="cls-6" d="M176.44,124.84a6.92,6.92,0,0,0,2.13-2.37,5.14,5.14,0,0,1-3.07,1.18"/></g><g class="cls-3"><path class="cls-6" d="M177.53,127.85a23.26,23.26,0,0,0-3.62-2.41,9.07,9.07,0,0,0-3.95-.95c-2.67,0-5,2.4-6.08,5.07l-.2-.66a10.79,10.79,0,0,0,5.06,2.56,11.34,11.34,0,0,1-5.85-1.6.51.51,0,0,1-.22-.59l0-.08a11.36,11.36,0,0,1,2.44-4.36,7.87,7.87,0,0,1,4.61-2.46,11.32,11.32,0,0,1,5.17.7,25.78,25.78,0,0,1,4.41,2.36,1.5,1.5,0,0,1-1.63,2.53l-.11-.08Z"/></g><g class="cls-3"><path class="cls-6" d="M180,127.16a4.1,4.1,0,0,1-1.11,1.48,6.57,6.57,0,0,1-1.27.88,8.4,8.4,0,0,1-2.67.86,7.61,7.61,0,0,0,1.65-2,4.59,4.59,0,0,0,.43-1.06c.08-.3.15-.79,0-.83a1.5,1.5,0,1,1,2.94.63Z"/></g><g class="cls-3"><path class="cls-6" d="M174.08,126.14a3.47,3.47,0,0,1-3.4,3.5,3.41,3.41,0,0,1-3.42-3.43,3.47,3.47,0,0,1,3.4-3.5A3.41,3.41,0,0,1,174.08,126.14Z"/></g><g class="cls-3"><ellipse class="cls-8" cx="172.35" cy="125.74" rx="0.79" ry="0.8" transform="translate(-1.26 1.75) rotate(-0.58)"/></g><g class="cls-3"><path class="cls-6" d="M134,125.57a7.17,7.17,0,0,1-1.81-2.62s2.19,2,3.62,2"/></g><g class="cls-3"><path class="cls-6" d="M136.6,124.84a6.92,6.92,0,0,1-2.13-2.37,5.14,5.14,0,0,0,3.07,1.18"/></g><g class="cls-3"><path class="cls-6" d="M133.71,125.44a25.78,25.78,0,0,1,4.41-2.36,11.32,11.32,0,0,1,5.17-.7,7.87,7.87,0,0,1,4.61,2.46,11.36,11.36,0,0,1,2.44,4.36l0,.08a.51.51,0,0,1-.22.59,11.34,11.34,0,0,1-5.85,1.6,10.79,10.79,0,0,0,5.06-2.56l-.2.66c-1.08-2.67-3.41-5-6.08-5.07a9.07,9.07,0,0,0-3.95.95,23.27,23.27,0,0,0-3.62,2.41l0,0a1.5,1.5,0,1,1-1.86-2.37Z"/></g><g class="cls-3"><path class="cls-6" d="M136,126.53c-.12,0-.05.53,0,.83a4.6,4.6,0,0,0,.43,1.06,7.62,7.62,0,0,0,1.65,2,8.4,8.4,0,0,1-2.67-.86,6.57,6.57,0,0,1-1.27-.88,4.1,4.1,0,0,1-1.11-1.48,1.5,1.5,0,0,1,2.94-.63Z"/></g><g class="cls-3"><path class="cls-6" d="M139,126.14a3.47,3.47,0,0,0,3.4,3.5,3.41,3.41,0,0,0,3.42-3.43,3.47,3.47,0,0,0-3.4-3.5A3.41,3.41,0,0,0,139,126.14Z"/></g><g class="cls-3"><ellipse class="cls-8" cx="141.2" cy="125.76" rx="0.8" ry="0.79" transform="translate(14.02 265.69) rotate(-89.42)"/></g><path class="cls-9" d="M154.62,211.27a76.83,76.83,0,1,1,76.83-76.83A76.82,76.82,0,0,1,154.62,211.27Zm0-182.9a107.18,107.18,0,0,0-41.95,205.81,3.86,3.86,0,0,1,.65.31c2.66,1.37,12.88,7.17,14.32,18.37a26.09,26.09,0,0,1,.16,2.66v60.79a11.11,11.11,0,0,1-.16,2.48,46.26,46.26,0,0,1-4.83,14.1,38.92,38.92,0,1,0,70.78,22.38,37.76,37.76,0,0,0-3.94-17c-1-1.52-1.79-3-2.51-4.35-.08-.15-.16-.23-.23-.39-5.09-9.83-5.32-15.94-5.32-17.08V255.53c0-12.64,10.95-19.17,14.25-20.93a5.1,5.1,0,0,0,.57-.26,1.35,1.35,0,0,0,.4-.15A107.23,107.23,0,0,0,154.57,28.37Z"/><text class="cls-10" transform="translate(296.82 224.44)">SULUU</text><text class="cls-11" transform="translate(458.48 349.84) scale(1.04 1)">Online</text></svg>