<?xml version="1.0" encoding="utf-8"?>
<!-- Generator: Adobe Illustrator 21.0.0, SVG Export Plug-In . SVG Version: 6.00 Build 0)  -->
<svg version="1.1" id="Слой_1" xmlns="http://www.w3.org/2000/svg" xmlns:xlink="http://www.w3.org/1999/xlink" x="0px" y="0px"
	 viewBox="0 0 841 416" style="enable-background:new 0 0 841 416;" xml:space="preserve">
<style type="text/css">
	.st0{fill:#E9DCCD;}
	.st1{clip-path:url(#SVGID_2_);}
	.st2{fill:none;stroke:#300016;stroke-width:3.74;stroke-linecap:round;stroke-linejoin:round;}
	.st3{clip-path:url(#SVGID_4_);}
	.st4{fill:#F43735;}
	.st5{clip-path:url(#SVGID_6_);}
	.st6{clip-path:url(#SVGID_8_);}
	.st7{clip-path:url(#SVGID_10_);}
	.st8{clip-path:url(#SVGID_12_);}
	.st9{clip-path:url(#SVGID_14_);}
	.st10{clip-path:url(#SVGID_16_);}
	.st11{clip-path:url(#SVGID_18_);}
	.st12{clip-path:url(#SVGID_20_);}
	.st13{clip-path:url(#SVGID_22_);}
	.st14{clip-path:url(#SVGID_24_);}
	.st15{clip-path:url(#SVGID_26_);}
	.st16{clip-path:url(#SVGID_28_);}
	.st17{clip-path:url(#SVGID_30_);}
	.st18{fill:#300016;}
	.st19{clip-path:url(#SVGID_32_);}
	.st20{clip-path:url(#SVGID_34_);}
	.st21{fill:none;stroke:#300016;stroke-width:2.73;stroke-linecap:round;stroke-linejoin:round;}
	.st22{clip-path:url(#SVGID_36_);}
	.st23{clip-path:url(#SVGID_38_);}
	.st24{clip-path:url(#SVGID_40_);}
	.st25{clip-path:url(#SVGID_42_);}
	.st26{clip-path:url(#SVGID_44_);}
	.st27{clip-path:url(#SVGID_46_);}
	.st28{fill:#FFFFFF;}
	.st29{clip-path:url(#SVGID_48_);}
	.st30{clip-path:url(#SVGID_50_);}
	.st31{clip-path:url(#SVGID_52_);}
	.st32{clip-path:url(#SVGID_54_);}
	.st33{clip-path:url(#SVGID_56_);}
	.st34{clip-path:url(#SVGID_58_);}
	.st35{fill:#F4E7D7;stroke:#300016;stroke-width:5.01;stroke-miterlimit:10;}
	.st36{font-family:'ArialMT';}
	.st37{font-size:156.2368px;}
	.st38{font-size:114.6121px;}
</style>
<title>Logo</title>
<rect class="st0" width="841" height="416"/>
<g>
	<g>
		<g>
			<defs>
				<rect id="SVGID_1_" x="8.4" y="6.9" width="301.6" height="285.1"/>
			</defs>
			<clipPath id="SVGID_2_">
				<use xlink:href="#SVGID_1_"  style="overflow:visible;"/>
			</clipPath>
			<g class="st1">
				<path class="st2" d="M132.7,167c6.6,5.8,14.2,11.2,23.2,11.9c9.5,0.8,18-3.7,25.1-9.5l2-1.7"/>
			</g>
		</g>
	</g>
	<g>
		<g>
			<defs>
				<rect id="SVGID_3_" x="8.4" y="6.9" width="301.6" height="285.1"/>
			</defs>
			<clipPath id="SVGID_4_">
				<use xlink:href="#SVGID_3_"  style="overflow:visible;"/>
			</clipPath>
			<g class="st3">
				<path class="st4" d="M163.4,152.3c-5.1-0.9-5.6,0.6-5.6,0.6s-0.5-1.7-5.6-0.6c-5.1,1-7.1,0.8-9.1,0.4c0,0,6,8.3,14.8,8.1
					c8.7,0.1,14.8-8.1,14.8-8.1C170.6,153.1,168.4,153.2,163.4,152.3z"/>
			</g>
		</g>
	</g>
	<path class="st2" d="M131.9,167.8c0,0,4,19.3-12.2,22.4s-49.3,2.5-60.5,13.2"/>
	<g>
		<g>
			<defs>
				<rect id="SVGID_5_" x="8.4" y="6.9" width="301.6" height="285.1"/>
			</defs>
			<clipPath id="SVGID_6_">
				<use xlink:href="#SVGID_5_"  style="overflow:visible;"/>
			</clipPath>
			<g class="st5">
				<ellipse class="st2" cx="203.2" cy="145.1" rx="5.5" ry="7"/>
			</g>
		</g>
	</g>
	<g>
		<g>
			<defs>
				<rect id="SVGID_7_" x="8.4" y="6.9" width="301.6" height="285.1"/>
			</defs>
			<clipPath id="SVGID_8_">
				<use xlink:href="#SVGID_7_"  style="overflow:visible;"/>
			</clipPath>
			<g class="st6">
				<path class="st2" d="M159.9,92c3.9-3.3,9.3-9.1,14.6-9.7c10.7-1,24.3,9.9,25.7,20.1c0.5,3.9-1.2,7.6-1.9,11.4
					c-0.8,4.1-0.4,8.5-0.5,12.6c-0.4,10.9,1.2,24.9-14.8,41.5c-0.8,5.5-3.5,13.8-0.8,19.3c1.6,3,4.7,5.1,7.9,6.6
					c4.4,2,8.3,4.7,11.8,8c1.2,1.1,2.1,2.5,2.8,4.1c0.7,1.5,0.7,3.3,0,4.8c-1.2,2.5-3.5,4.1-4.6,6.7c-1.6,4.3-1.9,9-0.9,13.6
					c0.8,3.8,2.6,7.4,5,10.4c5.4,7-1.6,15.2-1.6,15.2c3.9-1.7,10.7-9.5,9.7-15.5c-1.1-6-4.7-9.8,7.4-21.7c5.9-5.8,8.3-15,7.1-23.4
					c-1.2-8.6-6.2-16.4-14.6-18.9c-16.8-5-9.5-25.1-9.5-25.1"/>
			</g>
		</g>
	</g>
	<g>
		<g>
			<defs>
				<rect id="SVGID_9_" x="8.4" y="6.9" width="301.6" height="285.1"/>
			</defs>
			<clipPath id="SVGID_10_">
				<use xlink:href="#SVGID_9_"  style="overflow:visible;"/>
			</clipPath>
			<g class="st7">
				<path class="st2" d="M159.9,92c-3.9-3.3-12.6-9.1-18-9.7c-10.7-1-24.3,9.9-25.7,20.1c-0.5,3.9,1.2,7.6,1.9,11.4
					c0.8,4.1,0.4,8.5,0.5,12.6c0.4,10.9-1.2,24.9,14.8,41.5"/>
			</g>
		</g>
	</g>
	<g>
		<g>
			<defs>
				<rect id="SVGID_11_" x="8.4" y="6.9" width="301.6" height="285.1"/>
			</defs>
			<clipPath id="SVGID_12_">
				<use xlink:href="#SVGID_11_"  style="overflow:visible;"/>
			</clipPath>
			<g class="st8">
				<path class="st2" d="M160.2,79L160.2,79c8.9-19.6,30.6-13.6,30.6-13.6c7.1,1.3,12,6.1,15.3,11.7c2.3,3.9,3.6,4.4,5.5,8.5
					c1.6,3.3,4.2,6,6,9.1c3.2,5.2,5.2,10.9,5.9,16.9c1.1,11.8-7.8,20.2-16.9,28.3"/>
			</g>
		</g>
	</g>
	<g>
		<g>
			<defs>
				<rect id="SVGID_13_" x="8.4" y="6.9" width="301.6" height="285.1"/>
			</defs>
			<clipPath id="SVGID_14_">
				<use xlink:href="#SVGID_13_"  style="overflow:visible;"/>
			</clipPath>
			<g class="st9">
				<path class="st2" d="M109.2,140c-9.1-8-18-16.5-16.9-28.3c0.7-6,2.7-11.8,5.9-16.9c1.9-3.2,4.4-5.8,6-9.1
					c1.9-4.1,3.2-4.6,5.5-8.5c3.4-5.6,8.3-10.4,15.4-11.7c0,0,26.2-5.8,35.1,13.6"/>
			</g>
		</g>
	</g>
	<g>
		<g>
			<defs>
				<rect id="SVGID_15_" x="8.4" y="6.9" width="301.6" height="285.1"/>
			</defs>
			<clipPath id="SVGID_16_">
				<use xlink:href="#SVGID_15_"  style="overflow:visible;"/>
			</clipPath>
			<g class="st10">
				<ellipse class="st2" cx="114.4" cy="145.1" rx="5.5" ry="7"/>
			</g>
		</g>
	</g>
	<g>
		<g>
			<defs>
				<rect id="SVGID_17_" x="8.4" y="6.9" width="301.6" height="285.1"/>
			</defs>
			<clipPath id="SVGID_18_">
				<use xlink:href="#SVGID_17_"  style="overflow:visible;"/>
			</clipPath>
			<g class="st11">
				<path class="st2" d="M195.1,65.4c0,0-2-15.5-16.8-17.8s-14.4-10.7-34.5,0"/>
			</g>
		</g>
	</g>
	<g>
		<g>
			<defs>
				<rect id="SVGID_19_" x="8.4" y="6.9" width="301.6" height="285.1"/>
			</defs>
			<clipPath id="SVGID_20_">
				<use xlink:href="#SVGID_19_"  style="overflow:visible;"/>
			</clipPath>
			<g class="st12">
				<path class="st2" d="M127.2,64.7c0,0,1.9-14.7,16.7-17"/>
			</g>
		</g>
	</g>
	<g>
		<g>
			<defs>
				<rect id="SVGID_21_" x="8.4" y="6.9" width="301.6" height="285.1"/>
			</defs>
			<clipPath id="SVGID_22_">
				<use xlink:href="#SVGID_21_"  style="overflow:visible;"/>
			</clipPath>
			<g class="st13">
				<path class="st2" d="M174.4,82.2c0,0,11.8-6.5,38.2,4.7"/>
			</g>
		</g>
	</g>
	<g>
		<g>
			<defs>
				<rect id="SVGID_23_" x="8.4" y="6.9" width="301.6" height="285.1"/>
			</defs>
			<clipPath id="SVGID_24_">
				<use xlink:href="#SVGID_23_"  style="overflow:visible;"/>
			</clipPath>
			<g class="st14">
				<path class="st2" d="M143.7,82.2c0,0-20.8-8.6-41.8,7.1"/>
			</g>
		</g>
	</g>
	<g>
		<g>
			<defs>
				<rect id="SVGID_25_" x="8.4" y="6.9" width="301.6" height="285.1"/>
			</defs>
			<clipPath id="SVGID_26_">
				<use xlink:href="#SVGID_25_"  style="overflow:visible;"/>
			</clipPath>
			<g class="st15">
				<path class="st2" d="M200.1,102.3c0.8,4.8,3.9,9.1,8.5,11.6c7.8,4.6,10.3,14.5,6.9,18"/>
			</g>
		</g>
	</g>
	<g>
		<g>
			<defs>
				<rect id="SVGID_27_" x="8.4" y="6.9" width="301.6" height="285.1"/>
			</defs>
			<clipPath id="SVGID_28_">
				<use xlink:href="#SVGID_27_"  style="overflow:visible;"/>
			</clipPath>
			<g class="st16">
				<path class="st2" d="M115.9,102.3c-0.8,4.8-3.9,9.1-8.5,11.6c-7.8,4.6-10.3,14.5-6.9,18"/>
			</g>
		</g>
	</g>
	<g>
		<g>
			<defs>
				<rect id="SVGID_29_" x="8.4" y="6.9" width="301.6" height="285.1"/>
			</defs>
			<clipPath id="SVGID_30_">
				<use xlink:href="#SVGID_29_"  style="overflow:visible;"/>
			</clipPath>
			<g class="st17">
				<path class="st18" d="M166.9,110.1c1.2-0.3,2.4-0.5,3.8-0.5c2.3-0.1,5,0.3,7.5,0.4c1.3,0,2.8,0.1,4.2,0.5c1.2,0.3,2.4,0.6,3.4,1
					l3.2,1.1l-3.4-0.4c-0.9-0.1-2.1-0.3-3.4-0.3c-1.2,0-2.4,0-3.8,0.4c-2.7,0.6-5.4,0.9-7.1,1.4c-0.9,0.3-1.9,0.6-2.7,1.1
					c-1.3,0.5-2.8-0.3-3.2-1.4C164.9,111.9,165.6,110.7,166.9,110.1L166.9,110.1L166.9,110.1z"/>
			</g>
		</g>
	</g>
	<g>
		<g>
			<defs>
				<rect id="SVGID_31_" x="8.4" y="6.9" width="301.6" height="285.1"/>
			</defs>
			<clipPath id="SVGID_32_">
				<use xlink:href="#SVGID_31_"  style="overflow:visible;"/>
			</clipPath>
			<g class="st19">
				<path class="st18" d="M148.4,114.7c-0.8-0.4-1.7-0.8-2.7-1.1c-1.6-0.5-4.4-0.8-7.1-1.4c-1.2-0.3-2.4-0.4-3.8-0.4
					c-1.2,0-2.4,0.1-3.4,0.3l-3.4,0.4l3.2-1.1c0.9-0.4,2.1-0.6,3.4-1c1.3-0.4,2.7-0.5,4.2-0.5c2.6,0,5.2-0.5,7.5-0.4
					c1.2,0.1,2.6,0.3,3.8,0.5c1.3,0.5,2,1.8,1.5,3C151.1,114.5,149.6,115.2,148.4,114.7L148.4,114.7L148.4,114.7z"/>
			</g>
		</g>
	</g>
	<g>
		<g>
			<defs>
				<rect id="SVGID_33_" x="8.4" y="6.9" width="301.6" height="285.1"/>
			</defs>
			<clipPath id="SVGID_34_">
				<use xlink:href="#SVGID_33_"  style="overflow:visible;"/>
			</clipPath>
			<g class="st20">
				<path class="st21" d="M153.9,141.3c0,0,4,3.9,7.8,0"/>
			</g>
		</g>
	</g>
	<g>
		<g>
			<defs>
				<rect id="SVGID_35_" x="8.4" y="6.9" width="301.6" height="285.1"/>
			</defs>
			<clipPath id="SVGID_36_">
				<use xlink:href="#SVGID_35_"  style="overflow:visible;"/>
			</clipPath>
			<g class="st22">
				<path class="st18" d="M189.4,120.8c1.1-0.9,1.9-2,2.4-3.3c0,0-3,2.5-4.8,2.5"/>
			</g>
		</g>
	</g>
	<g>
		<g>
			<defs>
				<rect id="SVGID_37_" x="8.4" y="6.9" width="301.6" height="285.1"/>
			</defs>
			<clipPath id="SVGID_38_">
				<use xlink:href="#SVGID_37_"  style="overflow:visible;"/>
			</clipPath>
			<g class="st23">
				<path class="st18" d="M185.7,119.8c1.2-0.8,2.1-1.8,2.8-3c-1.2,0.9-2.6,1.4-4.2,1.5"/>
			</g>
		</g>
	</g>
	<g>
		<g>
			<defs>
				<rect id="SVGID_39_" x="8.4" y="6.9" width="301.6" height="285.1"/>
			</defs>
			<clipPath id="SVGID_40_">
				<use xlink:href="#SVGID_39_"  style="overflow:visible;"/>
			</clipPath>
			<g class="st24">
				<path class="st18" d="M187.2,123.6c-1.5-1.1-3.1-2.2-4.8-3c-1.6-0.8-3.5-1.1-5.2-1.1c-3.6,0-6.7,3-8.2,6.5l-0.3-0.9
					c1.9,1.7,4.3,2.8,6.9,3.3c-2.8,0-5.5-0.6-7.9-2c-0.3-0.1-0.4-0.5-0.3-0.8v-0.1c0.7-2,1.7-3.9,3.2-5.6c1.6-1.7,3.8-2.8,6.2-3.2
					c2.4-0.3,4.7,0.1,7,0.9c2,0.8,4,1.8,5.9,3c0.9,0.6,1.2,1.8,0.5,2.7c-0.7,0.9-1.9,1.1-2.8,0.5L187.2,123.6L187.2,123.6z"/>
			</g>
		</g>
	</g>
	<g>
		<g>
			<defs>
				<rect id="SVGID_41_" x="8.4" y="6.9" width="301.6" height="285.1"/>
			</defs>
			<clipPath id="SVGID_42_">
				<use xlink:href="#SVGID_41_"  style="overflow:visible;"/>
			</clipPath>
			<g class="st25">
				<path class="st18" d="M190.6,122.8c-0.4,0.8-0.8,1.4-1.5,1.9c-0.5,0.4-1.1,0.8-1.7,1.1c-1.1,0.5-2.3,0.9-3.6,1.1
					c0.9-0.8,1.6-1.5,2.1-2.5c0.3-0.4,0.4-0.9,0.5-1.4c0.1-0.4,0.1-1,0-1c0.3-1,1.3-1.7,2.4-1.5C190,120.7,190.7,121.7,190.6,122.8
					L190.6,122.8L190.6,122.8z"/>
			</g>
		</g>
	</g>
	<g>
		<g>
			<defs>
				<rect id="SVGID_43_" x="8.4" y="6.9" width="301.6" height="285.1"/>
			</defs>
			<clipPath id="SVGID_44_">
				<use xlink:href="#SVGID_43_"  style="overflow:visible;"/>
			</clipPath>
			<g class="st26">
				<path class="st18" d="M182.6,121.4c0,2.4-2,4.4-4.6,4.4s-4.6-1.9-4.6-4.3l0,0c0-2.4,2-4.4,4.6-4.4
					C180.5,117.1,182.6,119,182.6,121.4L182.6,121.4z"/>
			</g>
		</g>
	</g>
	<g>
		<g>
			<defs>
				<rect id="SVGID_45_" x="8.4" y="6.9" width="301.6" height="285.1"/>
			</defs>
			<clipPath id="SVGID_46_">
				<use xlink:href="#SVGID_45_"  style="overflow:visible;"/>
			</clipPath>
			<g class="st27">
				
					<ellipse transform="matrix(0.9999 -1.070904e-02 1.070904e-02 0.9999 -1.2847 1.9383)" class="st28" cx="180.3" cy="120.9" rx="1.1" ry="1"/>
			</g>
		</g>
	</g>
	<g>
		<g>
			<defs>
				<rect id="SVGID_47_" x="8.4" y="6.9" width="301.6" height="285.1"/>
			</defs>
			<clipPath id="SVGID_48_">
				<use xlink:href="#SVGID_47_"  style="overflow:visible;"/>
			</clipPath>
			<g class="st29">
				<path class="st18" d="M128.8,120.8c-1.1-0.9-1.9-2-2.4-3.3c0,0,3,2.5,4.8,2.5"/>
			</g>
		</g>
	</g>
	<g>
		<g>
			<defs>
				<rect id="SVGID_49_" x="8.4" y="6.9" width="301.6" height="285.1"/>
			</defs>
			<clipPath id="SVGID_50_">
				<use xlink:href="#SVGID_49_"  style="overflow:visible;"/>
			</clipPath>
			<g class="st30">
				<path class="st18" d="M132.3,119.8c-1.2-0.8-2.1-1.8-2.8-3c1.2,0.9,2.6,1.4,4.2,1.5"/>
			</g>
		</g>
	</g>
	<g>
		<g>
			<defs>
				<rect id="SVGID_51_" x="8.4" y="6.9" width="301.6" height="285.1"/>
			</defs>
			<clipPath id="SVGID_52_">
				<use xlink:href="#SVGID_51_"  style="overflow:visible;"/>
			</clipPath>
			<g class="st31">
				<path class="st18" d="M128.4,120.6c1.9-1.1,3.9-2.2,5.9-3c2.1-0.8,4.6-1.1,7-0.9c2.4,0.4,4.6,1.4,6.2,3.2
					c1.5,1.7,2.7,3.4,3.2,5.6v0.1c0.1,0.3,0,0.6-0.3,0.8c-2.4,1.4-5.1,2-7.9,2c2.6-0.5,4.8-1.7,6.9-3.3l-0.3,0.9
					c-1.5-3.4-4.6-6.3-8.2-6.5c-1.9,0-3.6,0.4-5.2,1.1c-1.7,0.9-3.4,1.9-4.8,3l0,0c-0.9,0.6-2.1,0.5-2.8-0.4
					C127.3,122.6,127.4,121.3,128.4,120.6L128.4,120.6z"/>
			</g>
		</g>
	</g>
	<g>
		<g>
			<defs>
				<rect id="SVGID_53_" x="8.4" y="6.9" width="301.6" height="285.1"/>
			</defs>
			<clipPath id="SVGID_54_">
				<use xlink:href="#SVGID_53_"  style="overflow:visible;"/>
			</clipPath>
			<g class="st32">
				<path class="st18" d="M131.5,122c-0.1,0-0.1,0.6,0,1c0.1,0.5,0.3,0.9,0.5,1.4c0.5,1,1.3,1.8,2.1,2.5c-1.2-0.1-2.4-0.5-3.6-1.1
					c-0.7-0.3-1.2-0.6-1.7-1.1c-0.7-0.5-1.2-1.1-1.5-1.9c-0.3-1,0.4-2,1.6-2.3C130.1,120.3,131.2,121.1,131.5,122L131.5,122
					L131.5,122z"/>
			</g>
		</g>
	</g>
	<g>
		<g>
			<defs>
				<rect id="SVGID_55_" x="8.4" y="6.9" width="301.6" height="285.1"/>
			</defs>
			<clipPath id="SVGID_56_">
				<use xlink:href="#SVGID_55_"  style="overflow:visible;"/>
			</clipPath>
			<g class="st33">
				<path class="st18" d="M135.5,121.4c0,2.4,2,4.4,4.6,4.4s4.6-1.9,4.6-4.3l0,0c0-2.4-2-4.4-4.6-4.4
					C137.5,117.1,135.5,119,135.5,121.4L135.5,121.4z"/>
			</g>
		</g>
	</g>
	<g>
		<g>
			<defs>
				<rect id="SVGID_57_" x="8.4" y="6.9" width="301.6" height="285.1"/>
			</defs>
			<clipPath id="SVGID_58_">
				<use xlink:href="#SVGID_57_"  style="overflow:visible;"/>
			</clipPath>
			<g class="st34">
				
					<ellipse transform="matrix(9.569490e-03 -1 1 9.569490e-03 16.1178 258.357)" class="st28" cx="138.5" cy="121" rx="1" ry="1.1"/>
			</g>
		</g>
	</g>
</g>
<path class="st35" d="M124.4,212.7c-48.7-22.8-70.8-78.4-49.3-124.2s78.3-64.4,127-41.6s70.8,78.4,49.3,124.2
	C230.1,216.9,173.2,235.6,124.4,212.7L124.4,212.7z M216.9,15.3c-68-31.8-147.3-5.8-177.3,58.1c-21.7,46.4-11.9,102.1,25,141.5
	c0.2,0.2,0.4,0.4,0.7,0.7c2.4,3,11.2,14.7,7.1,27.6c-0.3,1-0.7,2.1-1.1,3l-30.7,65.6c-0.4,0.9-0.9,1.8-1.5,2.6
	c-3.4,4.9-7.8,9.1-12.6,12.6c-23,12.4-30.5,40.9-16.5,63.6s44,31.3,67,18.9c8.6-4.5,15.4-11.6,19.4-20.3c3-6.4,4.4-13.3,4.1-20.4
	c-0.4-2.2-0.5-4.2-0.6-6.1c-0.1-0.2-0.1-0.3,0-0.5c-0.9-13.3,2-20,2.6-21.3l30.8-65.7c6.4-13.6,22.2-14.9,27-14.9c0.3,0,0.6,0,0.8,0
	c0.1,0.1,0.4,0.1,0.5,0.1c74.2,4.1,135.1-50.3,135.9-121.7C297.8,86.8,266.2,38.3,216.9,15.3L216.9,15.3z"/>
<text transform="matrix(0.967 0 0 1 293.8984 240.0752)" class="st18 st36 st37">SULUU</text>
<text transform="matrix(0.9856 0 0 1 398.4805 342.7842)" class="st18 st36 st38">Online</text>
</svg>
