<?xml version="1.0" encoding="utf-8"?>
<!-- Generator: Adobe Illustrator 21.0.0, SVG Export Plug-In . SVG Version: 6.00 Build 0)  -->
<svg version="1.1" id="Слой_1" xmlns="http://www.w3.org/2000/svg" xmlns:xlink="http://www.w3.org/1999/xlink" x="0px" y="0px"
	 viewBox="0 0 841 416" style="enable-background:new 0 0 841 416;" xml:space="preserve">
<style type="text/css">
	.st0{fill:#300016;}
	.st1{clip-path:url(#SVGID_2_);}
	.st2{fill:none;stroke:#E9DCCD;stroke-width:3.74;stroke-linecap:round;stroke-linejoin:round;}
	.st3{clip-path:url(#SVGID_4_);}
	.st4{fill:#F43735;}
	.st5{clip-path:url(#SVGID_6_);}
	.st6{clip-path:url(#SVGID_8_);}
	.st7{clip-path:url(#SVGID_10_);}
	.st8{clip-path:url(#SVGID_12_);}
	.st9{clip-path:url(#SVGID_14_);}
	.st10{clip-path:url(#SVGID_16_);}
	.st11{clip-path:url(#SVGID_18_);}
	.st12{clip-path:url(#SVGID_20_);}
	.st13{clip-path:url(#SVGID_22_);}
	.st14{clip-path:url(#SVGID_24_);}
	.st15{clip-path:url(#SVGID_26_);}
	.st16{clip-path:url(#SVGID_28_);}
	.st17{clip-path:url(#SVGID_30_);}
	.st18{fill:#E9DCCD;}
	.st19{clip-path:url(#SVGID_32_);}
	.st20{clip-path:url(#SVGID_34_);}
	.st21{fill:none;stroke:#E9DCCD;stroke-width:2.73;stroke-linecap:round;stroke-linejoin:round;}
	.st22{clip-path:url(#SVGID_36_);}
	.st23{clip-path:url(#SVGID_38_);}
	.st24{clip-path:url(#SVGID_40_);}
	.st25{clip-path:url(#SVGID_42_);}
	.st26{clip-path:url(#SVGID_44_);}
	.st27{clip-path:url(#SVGID_46_);}
	.st28{fill:#FFFFFF;}
	.st29{clip-path:url(#SVGID_48_);}
	.st30{clip-path:url(#SVGID_50_);}
	.st31{clip-path:url(#SVGID_52_);}
	.st32{clip-path:url(#SVGID_54_);}
	.st33{clip-path:url(#SVGID_56_);}
	.st34{clip-path:url(#SVGID_58_);}
	.st35{fill:#F4E7D7;stroke:#E9DCCD;stroke-width:5.01;stroke-miterlimit:10;}
	.st36{font-family:'ArialMT';}
	.st37{font-size:156.2368px;}
	.st38{font-size:114.6121px;}
</style>
<title>Logo</title>
<rect class="st0" width="841" height="416"/>
<g>
	<g>
		<defs>
			<rect id="SVGID_1_" x="44.4" y="35.9" width="224.5" height="224.5"/>
		</defs>
		<clipPath id="SVGID_2_">
			<use xlink:href="#SVGID_1_"  style="overflow:visible;"/>
		</clipPath>
		<g class="st1">
			<path class="st2" d="M136.9,162c4.9,4.6,10.6,8.8,17.3,9.4c7.1,0.6,13.4-2.9,18.7-7.5l1.5-1.3"/>
		</g>
	</g>
</g>
<g>
	<g>
		<defs>
			<rect id="SVGID_3_" x="44.4" y="35.9" width="224.5" height="224.5"/>
		</defs>
		<clipPath id="SVGID_4_">
			<use xlink:href="#SVGID_3_"  style="overflow:visible;"/>
		</clipPath>
		<g class="st3">
			<path class="st4" d="M159.8,150.4c-3.8-0.7-4.2,0.5-4.2,0.5s-0.4-1.3-4.2-0.5s-5.3,0.6-6.8,0.3c0,0,4.5,6.5,11,6.4
				c6.5,0.1,11-6.4,11-6.4C165.1,151,163.5,151.1,159.8,150.4z"/>
		</g>
	</g>
</g>
<path class="st2" d="M136.3,162.6c0,0,3,15.2-9.1,17.6s-36.7,2-45,10.4"/>
<g>
	<g>
		<defs>
			<rect id="SVGID_5_" x="44.4" y="35.9" width="224.5" height="224.5"/>
		</defs>
		<clipPath id="SVGID_6_">
			<use xlink:href="#SVGID_5_"  style="overflow:visible;"/>
		</clipPath>
		<g class="st5">
			<ellipse class="st2" cx="189.4" cy="144.7" rx="4.1" ry="5.5"/>
		</g>
	</g>
</g>
<g>
	<g>
		<defs>
			<rect id="SVGID_7_" x="44.4" y="35.9" width="224.5" height="224.5"/>
		</defs>
		<clipPath id="SVGID_8_">
			<use xlink:href="#SVGID_7_"  style="overflow:visible;"/>
		</clipPath>
		<g class="st6">
			<path class="st2" d="M157.2,102.9c2.9-2.6,6.9-7.2,10.9-7.6c8-0.8,18.1,7.8,19.1,15.8c0.4,3.1-0.9,6-1.4,9
				c-0.6,3.2-0.3,6.7-0.4,9.9c-0.3,8.6,0.9,19.6-11,32.7c-0.6,4.3-2.6,10.9-0.6,15.2c1.2,2.4,3.5,4,5.9,5.2c3.3,1.6,6.2,3.7,8.8,6.3
				c0.9,0.9,1.6,2,2.1,3.2s0.5,2.6,0,3.8c-0.9,2-2.6,3.2-3.4,5.3c-1.2,3.4-1.4,7.1-0.7,10.7c0.6,3,1.9,5.8,3.7,8.2
				c4,5.5-1.2,12-1.2,12c2.9-1.3,8-7.5,7.2-12.2s-3.5-7.7,5.5-17.1c4.4-4.6,6.2-11.8,5.3-18.4c-0.9-6.8-4.6-12.9-10.9-14.9
				c-12.5-3.9-7.1-19.8-7.1-19.8"/>
		</g>
	</g>
</g>
<g>
	<g>
		<defs>
			<rect id="SVGID_9_" x="44.4" y="35.9" width="224.5" height="224.5"/>
		</defs>
		<clipPath id="SVGID_10_">
			<use xlink:href="#SVGID_9_"  style="overflow:visible;"/>
		</clipPath>
		<g class="st7">
			<path class="st2" d="M157.2,102.9c-2.9-2.6-9.4-7.2-13.4-7.6c-8-0.8-18.1,7.8-19.1,15.8c-0.4,3.1,0.9,6,1.4,9
				c0.6,3.2,0.3,6.7,0.4,9.9c0.3,8.6-0.9,19.6,11,32.7"/>
		</g>
	</g>
</g>
<g>
	<g>
		<defs>
			<rect id="SVGID_11_" x="44.4" y="35.9" width="224.5" height="224.5"/>
		</defs>
		<clipPath id="SVGID_12_">
			<use xlink:href="#SVGID_11_"  style="overflow:visible;"/>
		</clipPath>
		<g class="st8">
			<path class="st2" d="M157.4,92.7L157.4,92.7C164,77.3,180.2,82,180.2,82c5.3,1,8.9,4.8,11.4,9.2c1.7,3.1,2.7,3.5,4.1,6.7
				c1.2,2.6,3.1,4.7,4.5,7.2c2.4,4.1,3.9,8.6,4.4,13.3c0.8,9.3-5.8,15.9-12.6,22.3"/>
		</g>
	</g>
</g>
<g>
	<g>
		<defs>
			<rect id="SVGID_13_" x="44.4" y="35.9" width="224.5" height="224.5"/>
		</defs>
		<clipPath id="SVGID_14_">
			<use xlink:href="#SVGID_13_"  style="overflow:visible;"/>
		</clipPath>
		<g class="st9">
			<path class="st2" d="M119.4,140.7c-6.8-6.3-13.4-13-12.6-22.3c0.5-4.7,2-9.3,4.4-13.3c1.4-2.5,3.3-4.6,4.5-7.2
				c1.4-3.2,2.4-3.6,4.1-6.7c2.5-4.4,6.2-8.2,11.5-9.2c0,0,19.5-4.6,26.1,10.7"/>
		</g>
	</g>
</g>
<g>
	<g>
		<defs>
			<rect id="SVGID_15_" x="44.4" y="35.9" width="224.5" height="224.5"/>
		</defs>
		<clipPath id="SVGID_16_">
			<use xlink:href="#SVGID_15_"  style="overflow:visible;"/>
		</clipPath>
		<g class="st10">
			<ellipse class="st2" cx="123.3" cy="144.7" rx="4.1" ry="5.5"/>
		</g>
	</g>
</g>
<g>
	<g>
		<defs>
			<rect id="SVGID_17_" x="44.4" y="35.9" width="224.5" height="224.5"/>
		</defs>
		<clipPath id="SVGID_18_">
			<use xlink:href="#SVGID_17_"  style="overflow:visible;"/>
		</clipPath>
		<g class="st11">
			<path class="st2" d="M183.4,82c0,0-1.5-12.2-12.5-14s-10.7-8.4-25.7,0"/>
		</g>
	</g>
</g>
<g>
	<g>
		<defs>
			<rect id="SVGID_19_" x="44.4" y="35.9" width="224.5" height="224.5"/>
		</defs>
		<clipPath id="SVGID_20_">
			<use xlink:href="#SVGID_19_"  style="overflow:visible;"/>
		</clipPath>
		<g class="st12">
			<path class="st2" d="M132.8,81.4c0,0,1.4-11.6,12.4-13.4"/>
		</g>
	</g>
</g>
<g>
	<g>
		<defs>
			<rect id="SVGID_21_" x="44.4" y="35.9" width="224.5" height="224.5"/>
		</defs>
		<clipPath id="SVGID_22_">
			<use xlink:href="#SVGID_21_"  style="overflow:visible;"/>
		</clipPath>
		<g class="st13">
			<path class="st2" d="M168,95.2c0,0,8.8-5.1,28.4,3.7"/>
		</g>
	</g>
</g>
<g>
	<g>
		<defs>
			<rect id="SVGID_23_" x="44.4" y="35.9" width="224.5" height="224.5"/>
		</defs>
		<clipPath id="SVGID_24_">
			<use xlink:href="#SVGID_23_"  style="overflow:visible;"/>
		</clipPath>
		<g class="st14">
			<path class="st2" d="M145.1,95.2c0,0-15.5-6.8-31.1,5.6"/>
		</g>
	</g>
</g>
<g>
	<g>
		<defs>
			<rect id="SVGID_25_" x="44.4" y="35.9" width="224.5" height="224.5"/>
		</defs>
		<clipPath id="SVGID_26_">
			<use xlink:href="#SVGID_25_"  style="overflow:visible;"/>
		</clipPath>
		<g class="st15">
			<path class="st2" d="M187.1,111c0.6,3.8,2.9,7.2,6.3,9.1c5.8,3.6,7.7,11.4,5.1,14.2"/>
		</g>
	</g>
</g>
<g>
	<g>
		<defs>
			<rect id="SVGID_27_" x="44.4" y="35.9" width="224.5" height="224.5"/>
		</defs>
		<clipPath id="SVGID_28_">
			<use xlink:href="#SVGID_27_"  style="overflow:visible;"/>
		</clipPath>
		<g class="st16">
			<path class="st2" d="M124.4,111c-0.6,3.8-2.9,7.2-6.3,9.1c-5.8,3.6-7.7,11.4-5.1,14.2"/>
		</g>
	</g>
</g>
<g>
	<g>
		<defs>
			<rect id="SVGID_29_" x="44.4" y="35.9" width="224.5" height="224.5"/>
		</defs>
		<clipPath id="SVGID_30_">
			<use xlink:href="#SVGID_29_"  style="overflow:visible;"/>
		</clipPath>
		<g class="st17">
			<path class="st18" d="M162.4,117.2c0.9-0.2,1.8-0.4,2.8-0.4c1.7-0.1,3.7,0.2,5.6,0.3c1,0,2.1,0.1,3.1,0.4
				c0.9,0.2,1.8,0.5,2.5,0.8l2.4,0.9l-2.5-0.3c-0.7-0.1-1.6-0.2-2.5-0.2s-1.8,0-2.8,0.3c-2,0.5-4,0.7-5.3,1.1
				c-0.7,0.2-1.4,0.5-2,0.9c-1,0.4-2.1-0.2-2.4-1.1C160.9,118.6,161.4,117.6,162.4,117.2L162.4,117.2L162.4,117.2z"/>
		</g>
	</g>
</g>
<g>
	<g>
		<defs>
			<rect id="SVGID_31_" x="44.4" y="35.9" width="224.5" height="224.5"/>
		</defs>
		<clipPath id="SVGID_32_">
			<use xlink:href="#SVGID_31_"  style="overflow:visible;"/>
		</clipPath>
		<g class="st19">
			<path class="st18" d="M148.6,120.8c-0.6-0.3-1.3-0.6-2-0.9c-1.2-0.4-3.3-0.6-5.3-1.1c-0.9-0.2-1.8-0.3-2.8-0.3
				c-0.9,0-1.8,0.1-2.5,0.2l-2.5,0.3l2.4-0.9c0.7-0.3,1.6-0.5,2.5-0.8c1-0.3,2-0.4,3.1-0.4c1.9,0,3.9-0.4,5.6-0.3
				c0.9,0.1,1.9,0.2,2.8,0.4c1,0.4,1.5,1.4,1.1,2.4C150.6,120.6,149.5,121.2,148.6,120.8L148.6,120.8L148.6,120.8z"/>
		</g>
	</g>
</g>
<g>
	<g>
		<defs>
			<rect id="SVGID_33_" x="44.4" y="35.9" width="224.5" height="224.5"/>
		</defs>
		<clipPath id="SVGID_34_">
			<use xlink:href="#SVGID_33_"  style="overflow:visible;"/>
		</clipPath>
		<g class="st20">
			<path class="st21" d="M152.7,141.7c0,0,3,3.1,5.8,0"/>
		</g>
	</g>
</g>
<g>
	<g>
		<defs>
			<rect id="SVGID_35_" x="44.4" y="35.9" width="224.5" height="224.5"/>
		</defs>
		<clipPath id="SVGID_36_">
			<use xlink:href="#SVGID_35_"  style="overflow:visible;"/>
		</clipPath>
		<g class="st22">
			<path class="st18" d="M179.1,125.6c0.8-0.7,1.4-1.6,1.8-2.6c0,0-2.2,2-3.6,2"/>
		</g>
	</g>
</g>
<g>
	<g>
		<defs>
			<rect id="SVGID_37_" x="44.4" y="35.9" width="224.5" height="224.5"/>
		</defs>
		<clipPath id="SVGID_38_">
			<use xlink:href="#SVGID_37_"  style="overflow:visible;"/>
		</clipPath>
		<g class="st23">
			<path class="st18" d="M176.4,124.8c0.9-0.6,1.6-1.4,2.1-2.4c-0.9,0.7-1.9,1.1-3.1,1.2"/>
		</g>
	</g>
</g>
<g>
	<g>
		<defs>
			<rect id="SVGID_39_" x="44.4" y="35.9" width="224.5" height="224.5"/>
		</defs>
		<clipPath id="SVGID_40_">
			<use xlink:href="#SVGID_39_"  style="overflow:visible;"/>
		</clipPath>
		<g class="st24">
			<path class="st18" d="M177.5,127.8c-1.1-0.9-2.3-1.7-3.6-2.4c-1.2-0.6-2.6-0.9-3.9-0.9c-2.7,0-5,2.4-6.1,5.1l-0.2-0.7
				c1.4,1.3,3.2,2.2,5.1,2.6c-2.1,0-4.1-0.5-5.9-1.6c-0.2-0.1-0.3-0.4-0.2-0.6v-0.1c0.5-1.6,1.3-3.1,2.4-4.4
				c1.2-1.3,2.8-2.2,4.6-2.5c1.8-0.2,3.5,0.1,5.2,0.7c1.5,0.6,3,1.4,4.4,2.4c0.7,0.5,0.9,1.4,0.4,2.1
				C179.2,128.2,178.3,128.4,177.5,127.8L177.5,127.8L177.5,127.8z"/>
		</g>
	</g>
</g>
<g>
	<g>
		<defs>
			<rect id="SVGID_41_" x="44.4" y="35.9" width="224.5" height="224.5"/>
		</defs>
		<clipPath id="SVGID_42_">
			<use xlink:href="#SVGID_41_"  style="overflow:visible;"/>
		</clipPath>
		<g class="st25">
			<path class="st18" d="M180,127.2c-0.3,0.6-0.6,1.1-1.1,1.5c-0.4,0.3-0.8,0.6-1.3,0.9c-0.8,0.4-1.7,0.7-2.7,0.9
				c0.7-0.6,1.2-1.2,1.6-2c0.2-0.3,0.3-0.7,0.4-1.1c0.1-0.3,0.1-0.8,0-0.8c0.2-0.8,1-1.3,1.8-1.2C179.6,125.5,180.1,126.3,180,127.2
				L180,127.2L180,127.2z"/>
		</g>
	</g>
</g>
<g>
	<g>
		<defs>
			<rect id="SVGID_43_" x="44.4" y="35.9" width="224.5" height="224.5"/>
		</defs>
		<clipPath id="SVGID_44_">
			<use xlink:href="#SVGID_43_"  style="overflow:visible;"/>
		</clipPath>
		<g class="st26">
			<path class="st18" d="M174.1,126.1c0,1.9-1.5,3.5-3.4,3.5s-3.4-1.5-3.4-3.4l0,0c0-1.9,1.5-3.5,3.4-3.5
				C172.5,122.7,174.1,124.2,174.1,126.1L174.1,126.1z"/>
		</g>
	</g>
</g>
<g>
	<g>
		<defs>
			<rect id="SVGID_45_" x="44.4" y="35.9" width="224.5" height="224.5"/>
		</defs>
		<clipPath id="SVGID_46_">
			<use xlink:href="#SVGID_45_"  style="overflow:visible;"/>
		</clipPath>
		<g class="st27">
			
				<ellipse transform="matrix(0.9999 -1.012323e-02 1.012323e-02 0.9999 -1.2636 1.7516)" class="st28" cx="172.4" cy="125.7" rx="0.8" ry="0.8"/>
		</g>
	</g>
</g>
<g>
	<g>
		<defs>
			<rect id="SVGID_47_" x="44.4" y="35.9" width="224.5" height="224.5"/>
		</defs>
		<clipPath id="SVGID_48_">
			<use xlink:href="#SVGID_47_"  style="overflow:visible;"/>
		</clipPath>
		<g class="st29">
			<path class="st18" d="M134,125.6c-0.8-0.7-1.4-1.6-1.8-2.6c0,0,2.2,2,3.6,2"/>
		</g>
	</g>
</g>
<g>
	<g>
		<defs>
			<rect id="SVGID_49_" x="44.4" y="35.9" width="224.5" height="224.5"/>
		</defs>
		<clipPath id="SVGID_50_">
			<use xlink:href="#SVGID_49_"  style="overflow:visible;"/>
		</clipPath>
		<g class="st30">
			<path class="st18" d="M136.6,124.8c-0.9-0.6-1.6-1.4-2.1-2.4c0.9,0.7,1.9,1.1,3.1,1.2"/>
		</g>
	</g>
</g>
<g>
	<g>
		<defs>
			<rect id="SVGID_51_" x="44.4" y="35.9" width="224.5" height="224.5"/>
		</defs>
		<clipPath id="SVGID_52_">
			<use xlink:href="#SVGID_51_"  style="overflow:visible;"/>
		</clipPath>
		<g class="st31">
			<path class="st18" d="M133.7,125.4c1.4-0.9,2.9-1.7,4.4-2.4c1.6-0.6,3.4-0.9,5.2-0.7c1.8,0.3,3.4,1.1,4.6,2.5
				c1.1,1.3,2,2.7,2.4,4.4v0.1c0.1,0.2,0,0.5-0.2,0.6c-1.8,1.1-3.8,1.6-5.9,1.6c1.9-0.4,3.6-1.3,5.1-2.6l-0.2,0.7
				c-1.1-2.7-3.4-5-6.1-5.1c-1.4,0-2.7,0.3-3.9,0.9c-1.3,0.7-2.5,1.5-3.6,2.4l0,0c-0.7,0.5-1.6,0.4-2.1-0.3
				C132.9,127,133,126,133.7,125.4L133.7,125.4z"/>
		</g>
	</g>
</g>
<g>
	<g>
		<defs>
			<rect id="SVGID_53_" x="44.4" y="35.9" width="224.5" height="224.5"/>
		</defs>
		<clipPath id="SVGID_54_">
			<use xlink:href="#SVGID_53_"  style="overflow:visible;"/>
		</clipPath>
		<g class="st32">
			<path class="st18" d="M136,126.5c-0.1,0-0.1,0.5,0,0.8c0.1,0.4,0.2,0.7,0.4,1.1c0.4,0.8,1,1.4,1.6,2c-0.9-0.1-1.8-0.4-2.7-0.9
				c-0.5-0.2-0.9-0.5-1.3-0.9c-0.5-0.4-0.9-0.9-1.1-1.5c-0.2-0.8,0.3-1.6,1.2-1.8C135,125.2,135.8,125.8,136,126.5L136,126.5
				L136,126.5z"/>
		</g>
	</g>
</g>
<g>
	<g>
		<defs>
			<rect id="SVGID_55_" x="44.4" y="35.9" width="224.5" height="224.5"/>
		</defs>
		<clipPath id="SVGID_56_">
			<use xlink:href="#SVGID_55_"  style="overflow:visible;"/>
		</clipPath>
		<g class="st33">
			<path class="st18" d="M139,126.1c0,1.9,1.5,3.5,3.4,3.5s3.4-1.5,3.4-3.4l0,0c0-1.9-1.5-3.5-3.4-3.5
				C140.5,122.7,139,124.2,139,126.1L139,126.1z"/>
		</g>
	</g>
</g>
<g>
	<g>
		<defs>
			<rect id="SVGID_57_" x="44.4" y="35.9" width="224.5" height="224.5"/>
		</defs>
		<clipPath id="SVGID_58_">
			<use xlink:href="#SVGID_57_"  style="overflow:visible;"/>
		</clipPath>
		<g class="st34">
			
				<ellipse transform="matrix(1.012326e-02 -0.9999 0.9999 1.012326e-02 14.0228 265.7263)" class="st28" cx="141.2" cy="125.8" rx="0.8" ry="0.8"/>
		</g>
	</g>
</g>
<path class="st35" d="M154.6,211.3c-42.4,0-76.8-34.4-76.8-76.8s34.4-76.8,76.8-76.8s76.8,34.4,76.8,76.8
	C231.5,176.9,197.1,211.3,154.6,211.3L154.6,211.3z M154.6,28.4c-59.2,0-107.2,48-107.2,107.2c0,43,25.7,81.8,65.2,98.6
	c0.2,0.1,0.4,0.2,0.7,0.3c2.7,1.4,12.9,7.2,14.3,18.4c0.1,0.9,0.2,1.8,0.2,2.7v60.8c0,0.8,0,1.7-0.2,2.5c-0.8,4.9-2.5,9.7-4.8,14.1
	c-12.3,17.6-8.1,41.9,9.5,54.2s41.9,8.1,54.2-9.5c4.6-6.5,7.1-14.3,7.1-22.3c0-5.9-1.3-11.7-3.9-17c-1-1.5-1.8-3-2.5-4.4
	c-0.1-0.1-0.2-0.2-0.2-0.4c-5.1-9.8-5.3-15.9-5.3-17.1v-60.9c0-12.6,10.9-19.2,14.3-20.9c0.2-0.1,0.4-0.2,0.6-0.3
	c0.1,0,0.3-0.1,0.4-0.1c54.4-23.3,79.7-86.3,56.4-140.8C236.3,53.9,197.5,28.3,154.6,28.4L154.6,28.4z"/>
<text transform="matrix(0.967 0 0 1 293.8984 240.0752)" class="st18 st36 st37">SULUU</text>
<text transform="matrix(0.9856 0 0 1 398.4805 342.7842)" class="st18 st36 st38">Online</text>
</svg>
