<?xml version="1.0" encoding="utf-8"?>
<!-- Generator: Adobe Illustrator 21.0.0, SVG Export Plug-In . SVG Version: 6.00 Build 0)  -->
<svg version="1.1" id="Слой_1" xmlns="http://www.w3.org/2000/svg" xmlns:xlink="http://www.w3.org/1999/xlink" x="0px" y="0px"
	 viewBox="0 0 841 416" style="enable-background:new 0 0 841 416;" xml:space="preserve">
<style type="text/css">
	.st0{fill:#F4E7D7;}
	.st1{clip-path:url(#SVGID_2_);}
	.st2{fill:none;stroke:#300016;stroke-width:3.74;stroke-linecap:round;stroke-linejoin:round;}
	.st3{clip-path:url(#SVGID_4_);}
	.st4{fill:#F43735;}
	.st5{clip-path:url(#SVGID_6_);}
	.st6{clip-path:url(#SVGID_8_);}
	.st7{clip-path:url(#SVGID_10_);}
	.st8{clip-path:url(#SVGID_12_);}
	.st9{clip-path:url(#SVGID_14_);}
	.st10{clip-path:url(#SVGID_16_);}
	.st11{clip-path:url(#SVGID_18_);}
	.st12{clip-path:url(#SVGID_20_);}
	.st13{clip-path:url(#SVGID_22_);}
	.st14{clip-path:url(#SVGID_24_);}
	.st15{clip-path:url(#SVGID_26_);}
	.st16{clip-path:url(#SVGID_28_);}
	.st17{clip-path:url(#SVGID_30_);}
	.st18{fill:#300016;}
	.st19{clip-path:url(#SVGID_32_);}
	.st20{clip-path:url(#SVGID_34_);}
	.st21{fill:none;stroke:#300016;stroke-width:2.73;stroke-linecap:round;stroke-linejoin:round;}
	.st22{clip-path:url(#SVGID_36_);}
	.st23{clip-path:url(#SVGID_38_);}
	.st24{clip-path:url(#SVGID_40_);}
	.st25{clip-path:url(#SVGID_42_);}
	.st26{clip-path:url(#SVGID_44_);}
	.st27{clip-path:url(#SVGID_46_);}
	.st28{fill:#FFFFFF;}
	.st29{clip-path:url(#SVGID_48_);}
	.st30{clip-path:url(#SVGID_50_);}
	.st31{clip-path:url(#SVGID_52_);}
	.st32{clip-path:url(#SVGID_54_);}
	.st33{clip-path:url(#SVGID_56_);}
	.st34{clip-path:url(#SVGID_58_);}
	.st35{display:none;fill:#F4E7D7;stroke:#300016;stroke-width:5.01;stroke-miterlimit:10;}
	.st36{font-family:'ArialMT';}
	.st37{font-size:156.2368px;}
	.st38{font-size:114.6121px;}
</style>
<title>Logo</title>
<rect class="st0" width="841" height="416"/>
<g>
	<g>
		<g>
			<g>
				<defs>
					<rect id="SVGID_1_" x="-58.7" y="-34.2" width="451.7" height="471.2"/>
				</defs>
				<clipPath id="SVGID_2_">
					<use xlink:href="#SVGID_1_"  style="overflow:visible;"/>
				</clipPath>
				<g class="st1">
					<path class="st2" d="M127.4,230.5c9.9,9.7,21.3,18.5,34.8,19.7c14.3,1.3,27-6.1,37.6-15.7l3-2.7"/>
				</g>
			</g>
		</g>
	</g>
	<g>
		<g>
			<g>
				<defs>
					<rect id="SVGID_3_" x="-58.7" y="-34.2" width="451.7" height="471.2"/>
				</defs>
				<clipPath id="SVGID_4_">
					<use xlink:href="#SVGID_3_"  style="overflow:visible;"/>
				</clipPath>
				<g class="st3">
					<path class="st4" d="M173.5,206.1c-7.6-1.5-8.5,1-8.5,1s-0.8-2.7-8.5-1c-7.6,1.7-10.7,1.3-13.7,0.6c0,0,9.1,13.6,22.1,13.4
						c13.1,0.2,22.1-13.4,22.1-13.4C184.2,207.4,180.9,207.6,173.5,206.1z"/>
				</g>
			</g>
		</g>
	</g>
	<path class="st2" d="M126.2,231.7c0,0,6,31.9-18.3,36.9s-73.8,4.2-90.5,21.8"/>
	<g>
		<g>
			<g>
				<defs>
					<rect id="SVGID_5_" x="-58.7" y="-34.2" width="451.7" height="471.2"/>
				</defs>
				<clipPath id="SVGID_6_">
					<use xlink:href="#SVGID_5_"  style="overflow:visible;"/>
				</clipPath>
				<g class="st5">
					<ellipse class="st2" cx="233.1" cy="194.2" rx="8.2" ry="11.5"/>
				</g>
			</g>
		</g>
	</g>
	<g>
		<g>
			<g>
				<defs>
					<rect id="SVGID_7_" x="-58.7" y="-34.2" width="451.7" height="471.2"/>
				</defs>
				<clipPath id="SVGID_8_">
					<use xlink:href="#SVGID_7_"  style="overflow:visible;"/>
				</clipPath>
				<g class="st6">
					<path class="st2" d="M168.3,106.4c5.8-5.5,13.9-15.1,21.9-16c16.1-1.7,36.4,16.4,38.4,33.2c0.8,6.5-1.8,12.6-2.8,18.9
						c-1.2,6.7-0.6,14.1-0.8,20.8c-0.6,18.1,1.8,41.1-22.1,68.6c-1.2,9-5.2,22.9-1.2,31.9c2.4,5,7,8.4,11.9,10.9
						c6.6,3.4,12.5,7.8,17.7,13.2c1.8,1.9,3.2,4.2,4.2,6.7s1,5.5,0,8c-1.8,4.2-5.2,6.7-6.8,11.1c-2.4,7.1-2.8,14.9-1.4,22.5
						c1.2,6.3,3.8,12.2,7.4,17.2c8,11.5-2.4,25.2-2.4,25.2c5.8-2.7,16.1-15.7,14.5-25.6s-7-16.2,11.1-35.9
						c8.9-9.7,12.5-24.8,10.7-38.6c-1.8-14.3-9.3-27.1-21.9-31.3c-25.1-8.2-14.3-41.6-14.3-41.6"/>
				</g>
			</g>
		</g>
	</g>
	<g>
		<g>
			<g>
				<defs>
					<rect id="SVGID_9_" x="-58.7" y="-34.2" width="451.7" height="471.2"/>
				</defs>
				<clipPath id="SVGID_10_">
					<use xlink:href="#SVGID_9_"  style="overflow:visible;"/>
				</clipPath>
				<g class="st7">
					<path class="st2" d="M168.3,106.4c-5.8-5.5-18.9-15.1-27-16c-16.1-1.7-36.4,16.4-38.4,33.2c-0.8,6.5,1.8,12.6,2.8,18.9
						c1.2,6.7,0.6,14.1,0.8,20.8c0.6,18.1-1.8,41.1,22.1,68.6"/>
				</g>
			</g>
		</g>
	</g>
	<g>
		<g>
			<g>
				<defs>
					<rect id="SVGID_11_" x="-58.7" y="-34.2" width="451.7" height="471.2"/>
				</defs>
				<clipPath id="SVGID_12_">
					<use xlink:href="#SVGID_11_"  style="overflow:visible;"/>
				</clipPath>
				<g class="st8">
					<path class="st2" d="M168.7,85L168.7,85c13.3-32.3,45.9-22.5,45.9-22.5c10.7,2.1,17.9,10.1,22.9,19.3c3.4,6.5,5.4,7.3,8.2,14.1
						c2.4,5.5,6.2,9.9,9.1,15.1c4.8,8.6,7.8,18.1,8.9,27.9c1.6,19.5-11.7,33.4-25.4,46.8"/>
				</g>
			</g>
		</g>
	</g>
	<g>
		<g>
			<g>
				<defs>
					<rect id="SVGID_13_" x="-58.7" y="-34.2" width="451.7" height="471.2"/>
				</defs>
				<clipPath id="SVGID_14_">
					<use xlink:href="#SVGID_13_"  style="overflow:visible;"/>
				</clipPath>
				<g class="st9">
					<path class="st2" d="M92.2,185.8c-13.7-13.2-27-27.3-25.4-46.8c1-9.9,4-19.5,8.9-27.9c2.8-5.2,6.6-9.7,9.1-15.1
						c2.8-6.7,4.8-7.6,8.2-14.1c5-9.2,12.5-17.2,23.1-19.3c0,0,39.2-9.7,52.5,22.5"/>
				</g>
			</g>
		</g>
	</g>
	<g>
		<g>
			<g>
				<defs>
					<rect id="SVGID_15_" x="-58.7" y="-34.2" width="451.7" height="471.2"/>
				</defs>
				<clipPath id="SVGID_16_">
					<use xlink:href="#SVGID_15_"  style="overflow:visible;"/>
				</clipPath>
				<g class="st10">
					<ellipse class="st2" cx="100.1" cy="194.2" rx="8.2" ry="11.5"/>
				</g>
			</g>
		</g>
	</g>
	<g>
		<g>
			<g>
				<defs>
					<rect id="SVGID_17_" x="-58.7" y="-34.2" width="451.7" height="471.2"/>
				</defs>
				<clipPath id="SVGID_18_">
					<use xlink:href="#SVGID_17_"  style="overflow:visible;"/>
				</clipPath>
				<g class="st11">
					<path class="st2" d="M221,62.6c0,0-3-25.6-25.1-29.4s-21.5-17.6-51.7,0"/>
				</g>
			</g>
		</g>
	</g>
	<g>
		<g>
			<g>
				<defs>
					<rect id="SVGID_19_" x="-58.7" y="-34.2" width="451.7" height="471.2"/>
				</defs>
				<clipPath id="SVGID_20_">
					<use xlink:href="#SVGID_19_"  style="overflow:visible;"/>
				</clipPath>
				<g class="st12">
					<path class="st2" d="M119.2,61.3c0,0,2.8-24.3,24.9-28.1"/>
				</g>
			</g>
		</g>
	</g>
	<g>
		<g>
			<g>
				<defs>
					<rect id="SVGID_21_" x="-58.7" y="-34.2" width="451.7" height="471.2"/>
				</defs>
				<clipPath id="SVGID_22_">
					<use xlink:href="#SVGID_21_"  style="overflow:visible;"/>
				</clipPath>
				<g class="st13">
					<path class="st2" d="M190,90.3c0,0,17.7-10.7,57.1,7.8"/>
				</g>
			</g>
		</g>
	</g>
	<g>
		<g>
			<g>
				<defs>
					<rect id="SVGID_23_" x="-58.7" y="-34.2" width="451.7" height="471.2"/>
				</defs>
				<clipPath id="SVGID_24_">
					<use xlink:href="#SVGID_23_"  style="overflow:visible;"/>
				</clipPath>
				<g class="st14">
					<path class="st2" d="M143.9,90.3c0,0-31.2-14.3-62.6,11.8"/>
				</g>
			</g>
		</g>
	</g>
	<g>
		<g>
			<g>
				<defs>
					<rect id="SVGID_25_" x="-58.7" y="-34.2" width="451.7" height="471.2"/>
				</defs>
				<clipPath id="SVGID_26_">
					<use xlink:href="#SVGID_25_"  style="overflow:visible;"/>
				</clipPath>
				<g class="st15">
					<path class="st2" d="M228.4,123.4c1.2,8,5.8,15.1,12.7,19.1c11.7,7.6,15.5,23.9,10.3,29.8"/>
				</g>
			</g>
		</g>
	</g>
	<g>
		<g>
			<g>
				<defs>
					<rect id="SVGID_27_" x="-58.7" y="-34.2" width="451.7" height="471.2"/>
				</defs>
				<clipPath id="SVGID_28_">
					<use xlink:href="#SVGID_27_"  style="overflow:visible;"/>
				</clipPath>
				<g class="st16">
					<path class="st2" d="M102.3,123.4c-1.2,8-5.8,15.1-12.7,19.1c-11.7,7.6-15.5,23.9-10.3,29.8"/>
				</g>
			</g>
		</g>
	</g>
	<g>
		<g>
			<g>
				<defs>
					<rect id="SVGID_29_" x="-58.7" y="-34.2" width="451.7" height="471.2"/>
				</defs>
				<clipPath id="SVGID_30_">
					<use xlink:href="#SVGID_29_"  style="overflow:visible;"/>
				</clipPath>
				<g class="st17">
					<path class="st18" d="M178.7,136.4c1.8-0.4,3.6-0.8,5.6-0.8c3.4-0.2,7.4,0.4,11.3,0.6c2,0,4.2,0.2,6.2,0.8c1.8,0.4,3.6,1,5,1.7
						l4.8,1.9l-5-0.6c-1.4-0.2-3.2-0.4-5-0.4s-3.6,0-5.6,0.6c-4,1-8,1.5-10.7,2.3c-1.4,0.4-2.8,1-4,1.9c-2,0.8-4.2-0.4-4.8-2.3
						C175.7,139.4,176.7,137.3,178.7,136.4L178.7,136.4L178.7,136.4z"/>
				</g>
			</g>
		</g>
	</g>
	<g>
		<g>
			<g>
				<defs>
					<rect id="SVGID_31_" x="-58.7" y="-34.2" width="451.7" height="471.2"/>
				</defs>
				<clipPath id="SVGID_32_">
					<use xlink:href="#SVGID_31_"  style="overflow:visible;"/>
				</clipPath>
				<g class="st19">
					<path class="st18" d="M151,144c-1.2-0.6-2.6-1.3-4-1.9c-2.4-0.8-6.6-1.3-10.7-2.3c-1.8-0.4-3.6-0.6-5.6-0.6
						c-1.8,0-3.6,0.2-5,0.4l-5,0.6l4.8-1.9c1.4-0.6,3.2-1,5-1.7c2-0.6,4-0.8,6.2-0.8c3.8,0,7.8-0.8,11.3-0.6
						c1.8,0.2,3.8,0.4,5.6,0.8c2,0.8,3,2.9,2.2,5C155,143.6,152.8,144.8,151,144L151,144L151,144z"/>
				</g>
			</g>
		</g>
	</g>
	<g>
		<g>
			<g>
				<defs>
					<rect id="SVGID_33_" x="-58.7" y="-34.2" width="451.7" height="471.2"/>
				</defs>
				<clipPath id="SVGID_34_">
					<use xlink:href="#SVGID_33_"  style="overflow:visible;"/>
				</clipPath>
				<g class="st20">
					<path class="st21" d="M159.2,187.9c0,0,6,6.5,11.7,0"/>
				</g>
			</g>
		</g>
	</g>
	<g>
		<g>
			<g>
				<defs>
					<rect id="SVGID_35_" x="-58.7" y="-34.2" width="451.7" height="471.2"/>
				</defs>
				<clipPath id="SVGID_36_">
					<use xlink:href="#SVGID_35_"  style="overflow:visible;"/>
				</clipPath>
				<g class="st22">
					<path class="st18" d="M212.3,154.1c1.6-1.5,2.8-3.4,3.6-5.5c0,0-4.4,4.2-7.2,4.2"/>
				</g>
			</g>
		</g>
	</g>
	<g>
		<g>
			<g>
				<defs>
					<rect id="SVGID_37_" x="-58.7" y="-34.2" width="451.7" height="471.2"/>
				</defs>
				<clipPath id="SVGID_38_">
					<use xlink:href="#SVGID_37_"  style="overflow:visible;"/>
				</clipPath>
				<g class="st23">
					<path class="st18" d="M206.9,152.4c1.8-1.3,3.2-2.9,4.2-5c-1.8,1.5-3.8,2.3-6.2,2.5"/>
				</g>
			</g>
		</g>
	</g>
	<g>
		<g>
			<g>
				<defs>
					<rect id="SVGID_39_" x="-58.7" y="-34.2" width="451.7" height="471.2"/>
				</defs>
				<clipPath id="SVGID_40_">
					<use xlink:href="#SVGID_39_"  style="overflow:visible;"/>
				</clipPath>
				<g class="st24">
					<path class="st18" d="M209.1,158.7c-2.2-1.9-4.6-3.6-7.2-5c-2.4-1.3-5.2-1.9-7.8-1.9c-5.4,0-10.1,5-12.3,10.7l-0.4-1.5
						c2.8,2.7,6.4,4.6,10.3,5.5c-4.2,0-8.2-1-11.9-3.4c-0.4-0.2-0.6-0.8-0.4-1.3v-0.2c1-3.4,2.6-6.5,4.8-9.2
						c2.4-2.7,5.6-4.6,9.3-5.2c3.6-0.4,7,0.2,10.5,1.5c3,1.3,6,2.9,8.9,5c1.4,1,1.8,2.9,0.8,4.4s-2.8,1.9-4.2,0.8L209.1,158.7
						L209.1,158.7z"/>
				</g>
			</g>
		</g>
	</g>
	<g>
		<g>
			<g>
				<defs>
					<rect id="SVGID_41_" x="-58.7" y="-34.2" width="451.7" height="471.2"/>
				</defs>
				<clipPath id="SVGID_42_">
					<use xlink:href="#SVGID_41_"  style="overflow:visible;"/>
				</clipPath>
				<g class="st25">
					<path class="st18" d="M214.1,157.4c-0.6,1.3-1.2,2.3-2.2,3.1c-0.8,0.6-1.6,1.3-2.6,1.9c-1.6,0.8-3.4,1.5-5.4,1.9
						c1.4-1.3,2.4-2.5,3.2-4.2c0.4-0.6,0.6-1.5,0.8-2.3c0.2-0.6,0.2-1.7,0-1.7c0.4-1.7,2-2.7,3.6-2.5
						C213.3,153.9,214.3,155.5,214.1,157.4L214.1,157.4L214.1,157.4z"/>
				</g>
			</g>
		</g>
	</g>
	<g>
		<g>
			<g>
				<defs>
					<rect id="SVGID_43_" x="-58.7" y="-34.2" width="451.7" height="471.2"/>
				</defs>
				<clipPath id="SVGID_44_">
					<use xlink:href="#SVGID_43_"  style="overflow:visible;"/>
				</clipPath>
				<g class="st26">
					<path class="st18" d="M202.3,155.1c0,4-3,7.3-6.8,7.3s-6.8-3.1-6.8-7.1l0,0c0-4,3-7.3,6.8-7.3C199,148,202.3,151.1,202.3,155.1
						L202.3,155.1z"/>
				</g>
			</g>
		</g>
	</g>
	<g>
		<g>
			<g>
				<defs>
					<rect id="SVGID_45_" x="-58.7" y="-34.2" width="451.7" height="471.2"/>
				</defs>
				<clipPath id="SVGID_46_">
					<use xlink:href="#SVGID_45_"  style="overflow:visible;"/>
				</clipPath>
				<g class="st27">
					
						<ellipse transform="matrix(1 -9.703600e-03 9.703600e-03 1 -1.488 1.9364)" class="st28" cx="198.8" cy="154.3" rx="1.6" ry="1.7"/>
				</g>
			</g>
		</g>
	</g>
	<g>
		<g>
			<g>
				<defs>
					<rect id="SVGID_47_" x="-58.7" y="-34.2" width="451.7" height="471.2"/>
				</defs>
				<clipPath id="SVGID_48_">
					<use xlink:href="#SVGID_47_"  style="overflow:visible;"/>
				</clipPath>
				<g class="st29">
					<path class="st18" d="M121.6,154.1c-1.6-1.5-2.8-3.4-3.6-5.5c0,0,4.4,4.2,7.2,4.2"/>
				</g>
			</g>
		</g>
	</g>
	<g>
		<g>
			<g>
				<defs>
					<rect id="SVGID_49_" x="-58.7" y="-34.2" width="451.7" height="471.2"/>
				</defs>
				<clipPath id="SVGID_50_">
					<use xlink:href="#SVGID_49_"  style="overflow:visible;"/>
				</clipPath>
				<g class="st30">
					<path class="st18" d="M126.8,152.4c-1.8-1.3-3.2-2.9-4.2-5c1.8,1.5,3.8,2.3,6.2,2.5"/>
				</g>
			</g>
		</g>
	</g>
	<g>
		<g>
			<g>
				<defs>
					<rect id="SVGID_51_" x="-58.7" y="-34.2" width="451.7" height="471.2"/>
				</defs>
				<clipPath id="SVGID_52_">
					<use xlink:href="#SVGID_51_"  style="overflow:visible;"/>
				</clipPath>
				<g class="st31">
					<path class="st18" d="M121,153.7c2.8-1.9,5.8-3.6,8.9-5c3.2-1.3,6.8-1.9,10.5-1.5c3.6,0.6,6.8,2.3,9.3,5.2
						c2.2,2.7,4,5.7,4.8,9.2v0.2c0.2,0.4,0,1-0.4,1.3c-3.6,2.3-7.6,3.4-11.9,3.4c3.8-0.8,7.2-2.7,10.3-5.5l-0.4,1.5
						c-2.2-5.7-6.8-10.5-12.3-10.7c-2.8,0-5.4,0.6-7.8,1.9c-2.6,1.5-5,3.1-7.2,5l0,0c-1.4,1-3.2,0.8-4.2-0.6
						C119.4,157,119.6,154.9,121,153.7L121,153.7z"/>
				</g>
			</g>
		</g>
	</g>
	<g>
		<g>
			<g>
				<defs>
					<rect id="SVGID_53_" x="-58.7" y="-34.2" width="451.7" height="471.2"/>
				</defs>
				<clipPath id="SVGID_54_">
					<use xlink:href="#SVGID_53_"  style="overflow:visible;"/>
				</clipPath>
				<g class="st32">
					<path class="st18" d="M125.6,156c-0.2,0-0.2,1,0,1.7c0.2,0.8,0.4,1.5,0.8,2.3c0.8,1.7,2,2.9,3.2,4.2c-1.8-0.2-3.6-0.8-5.4-1.9
						c-1-0.4-1.8-1-2.6-1.9c-1-0.8-1.8-1.9-2.2-3.1c-0.4-1.7,0.6-3.4,2.4-3.8C123.6,153.2,125.2,154.5,125.6,156L125.6,156
						L125.6,156z"/>
				</g>
			</g>
		</g>
	</g>
	<g>
		<g>
			<g>
				<defs>
					<rect id="SVGID_55_" x="-58.7" y="-34.2" width="451.7" height="471.2"/>
				</defs>
				<clipPath id="SVGID_56_">
					<use xlink:href="#SVGID_55_"  style="overflow:visible;"/>
				</clipPath>
				<g class="st33">
					<path class="st18" d="M131.6,155.1c0,4,3,7.3,6.8,7.3s6.8-3.1,6.8-7.1l0,0c0-4-3-7.3-6.8-7.3
						C134.7,148,131.6,151.1,131.6,155.1L131.6,155.1z"/>
				</g>
			</g>
		</g>
	</g>
	<g>
		<g>
			<g>
				<defs>
					<rect id="SVGID_57_" x="-58.7" y="-34.2" width="451.7" height="471.2"/>
				</defs>
				<clipPath id="SVGID_58_">
					<use xlink:href="#SVGID_57_"  style="overflow:visible;"/>
				</clipPath>
				<g class="st34">
					
						<ellipse transform="matrix(1.056102e-02 -0.9999 0.9999 1.056102e-02 -19.7477 289.0164)" class="st28" cx="136.2" cy="154.5" rx="1.7" ry="1.6"/>
				</g>
			</g>
		</g>
	</g>
</g>
<path class="st35" d="M124.4,212.7c-48.7-22.8-70.8-78.4-49.3-124.2s78.3-64.4,127-41.6s70.8,78.4,49.3,124.2
	C230.1,216.9,173.2,235.6,124.4,212.7L124.4,212.7z M216.9,15.3c-68-31.8-147.3-5.8-177.3,58.1c-21.7,46.4-11.9,102.1,25,141.5
	c0.2,0.2,0.4,0.4,0.7,0.7c2.4,3,11.2,14.7,7.1,27.6c-0.3,1-0.7,2.1-1.1,3l-30.7,65.6c-0.4,0.9-0.9,1.8-1.5,2.6
	c-3.4,4.9-7.8,9.1-12.6,12.6C3.5,339.4-4,367.9,10,390.6s44,31.3,67,18.9c8.6-4.5,15.4-11.6,19.4-20.3c3-6.4,4.4-13.3,4.1-20.4
	c-0.4-2.2-0.5-4.2-0.6-6.1c-0.1-0.2-0.1-0.3,0-0.5c-0.9-13.3,2-20,2.6-21.3l30.8-65.7c6.4-13.6,22.2-14.9,27-14.9c0.3,0,0.6,0,0.8,0
	c0.1,0.1,0.4,0.1,0.5,0.1c74.2,4.1,135.1-50.3,135.9-121.7C297.8,86.8,266.2,38.3,216.9,15.3L216.9,15.3z"/>
<text transform="matrix(0.967 0 0 1 293.8984 240.0752)" class="st18 st36 st37">SULUU</text>
<text transform="matrix(0.9856 0 0 1 398.4805 342.7842)" class="st18 st36 st38">Online</text>
</svg>
