<?xml version="1.0" encoding="utf-8"?>
<!-- Generator: Adobe Illustrator 21.0.0, SVG Export Plug-In . SVG Version: 6.00 Build 0)  -->
<svg version="1.1" id="Слой_1" xmlns="http://www.w3.org/2000/svg" xmlns:xlink="http://www.w3.org/1999/xlink" x="0px" y="0px"
	 viewBox="0 0 841 416" style="enable-background:new 0 0 841 416;" xml:space="preserve">
<style type="text/css">
	.st0{fill:#300016;}
	.st1{clip-path:url(#SVGID_2_);}
	.st2{fill:none;stroke:#E9DCCD;stroke-width:3.74;stroke-linecap:round;stroke-linejoin:round;}
	.st3{clip-path:url(#SVGID_4_);}
	.st4{fill:#F43735;}
	.st5{clip-path:url(#SVGID_6_);}
	.st6{clip-path:url(#SVGID_8_);}
	.st7{clip-path:url(#SVGID_10_);}
	.st8{clip-path:url(#SVGID_12_);}
	.st9{clip-path:url(#SVGID_14_);}
	.st10{clip-path:url(#SVGID_16_);}
	.st11{clip-path:url(#SVGID_18_);}
	.st12{clip-path:url(#SVGID_20_);}
	.st13{clip-path:url(#SVGID_22_);}
	.st14{clip-path:url(#SVGID_24_);}
	.st15{clip-path:url(#SVGID_26_);}
	.st16{clip-path:url(#SVGID_28_);}
	.st17{clip-path:url(#SVGID_30_);}
	.st18{fill:#E9DCCD;}
	.st19{clip-path:url(#SVGID_32_);}
	.st20{clip-path:url(#SVGID_34_);}
	.st21{fill:none;stroke:#E9DCCD;stroke-width:2.73;stroke-linecap:round;stroke-linejoin:round;}
	.st22{clip-path:url(#SVGID_36_);}
	.st23{clip-path:url(#SVGID_38_);}
	.st24{clip-path:url(#SVGID_40_);}
	.st25{clip-path:url(#SVGID_42_);}
	.st26{clip-path:url(#SVGID_44_);}
	.st27{clip-path:url(#SVGID_46_);}
	.st28{fill:#FFFFFF;}
	.st29{clip-path:url(#SVGID_48_);}
	.st30{clip-path:url(#SVGID_50_);}
	.st31{clip-path:url(#SVGID_52_);}
	.st32{clip-path:url(#SVGID_54_);}
	.st33{clip-path:url(#SVGID_56_);}
	.st34{clip-path:url(#SVGID_58_);}
	.st35{font-family:'ArialMT';}
	.st36{font-size:156.2368px;}
	.st37{font-size:114.6121px;}
</style>
<title>Logo</title>
<rect class="st0" width="841" height="416"/>
<g>
	<g>
		<g>
			<defs>
				<rect id="SVGID_1_" x="-42.1" y="-6.7" width="468.1" height="433.7"/>
			</defs>
			<clipPath id="SVGID_2_">
				<use xlink:href="#SVGID_1_"  style="overflow:visible;"/>
			</clipPath>
			<g class="st1">
				<path class="st2" d="M150.8,236.9c10.2,8.9,22.1,17,36.1,18.2c14.8,1.2,27.9-5.6,39-14.5l3.1-2.5"/>
			</g>
		</g>
	</g>
	<g>
		<g>
			<defs>
				<rect id="SVGID_3_" x="-42.1" y="-6.7" width="468.1" height="433.7"/>
			</defs>
			<clipPath id="SVGID_4_">
				<use xlink:href="#SVGID_3_"  style="overflow:visible;"/>
			</clipPath>
			<g class="st3">
				<path class="st4" d="M198.5,214.5c-7.9-1.4-8.8,1-8.8,1s-0.8-2.5-8.8-1c-7.9,1.5-11.1,1.2-14.2,0.6c0,0,9.4,12.6,22.9,12.4
					c13.6,0.2,22.9-12.4,22.9-12.4C209.6,215.6,206.2,215.8,198.5,214.5z"/>
			</g>
		</g>
	</g>
	<path class="st2" d="M149.5,238.1c0,0,6.3,29.4-19,34c-25.2,4.6-76.5,3.9-93.8,20.1"/>
	<g>
		<g>
			<defs>
				<rect id="SVGID_5_" x="-42.1" y="-6.7" width="468.1" height="433.7"/>
			</defs>
			<clipPath id="SVGID_6_">
				<use xlink:href="#SVGID_5_"  style="overflow:visible;"/>
			</clipPath>
			<g class="st5">
				<ellipse class="st2" cx="260.2" cy="203.5" rx="8.5" ry="10.6"/>
			</g>
		</g>
	</g>
	<g>
		<g>
			<defs>
				<rect id="SVGID_7_" x="-42.1" y="-6.7" width="468.1" height="433.7"/>
			</defs>
			<clipPath id="SVGID_8_">
				<use xlink:href="#SVGID_7_"  style="overflow:visible;"/>
			</clipPath>
			<g class="st6">
				<path class="st2" d="M193.1,122.7c6-5,14.4-13.9,22.7-14.7c16.7-1.5,37.7,15.1,39.8,30.5c0.8,6-1.9,11.6-2.9,17.4
					c-1.3,6.2-0.6,12.9-0.8,19.1c-0.6,16.6,1.9,37.9-22.9,63.2c-1.3,8.3-5.4,21.1-1.3,29.4c2.5,4.6,7.3,7.7,12.3,10
					c6.9,3.1,12.9,7.1,18.3,12.2c1.9,1.7,3.3,3.9,4.4,6.2c1,2.3,1,5,0,7.3c-1.9,3.9-5.4,6.2-7.1,10.2c-2.5,6.6-2.9,13.7-1.5,20.7
					c1.3,5.8,4,11.2,7.7,15.8c8.3,10.6-2.5,23.2-2.5,23.2c6-2.5,16.7-14.5,15-23.6c-1.7-9.1-7.3-14.9,11.5-33
					c9.2-8.9,12.9-22.8,11.1-35.5c-1.9-13.1-9.6-24.9-22.7-28.8c-26.1-7.5-14.8-38.3-14.8-38.3"/>
			</g>
		</g>
	</g>
	<g>
		<g>
			<defs>
				<rect id="SVGID_9_" x="-42.1" y="-6.7" width="468.1" height="433.7"/>
			</defs>
			<clipPath id="SVGID_10_">
				<use xlink:href="#SVGID_9_"  style="overflow:visible;"/>
			</clipPath>
			<g class="st7">
				<path class="st2" d="M193.1,122.7c-6-5-19.6-13.9-27.9-14.7c-16.7-1.5-37.7,15.1-39.8,30.5c-0.8,6,1.9,11.6,2.9,17.4
					c1.3,6.2,0.6,12.9,0.8,19.1c0.6,16.6-1.9,37.9,22.9,63.2"/>
			</g>
		</g>
	</g>
	<g>
		<g>
			<defs>
				<rect id="SVGID_11_" x="-42.1" y="-6.7" width="468.1" height="433.7"/>
			</defs>
			<clipPath id="SVGID_12_">
				<use xlink:href="#SVGID_11_"  style="overflow:visible;"/>
			</clipPath>
			<g class="st8">
				<path class="st2" d="M193.5,103L193.5,103C207.3,73.3,241,82.3,241,82.3c11.1,1.9,18.6,9.3,23.8,17.8c3.5,6,5.6,6.8,8.5,12.9
					c2.5,5,6.5,9.1,9.4,13.9c5,7.9,8.1,16.6,9.2,25.7c1.7,18-12.1,30.7-26.3,43.1"/>
			</g>
		</g>
	</g>
	<g>
		<g>
			<defs>
				<rect id="SVGID_13_" x="-42.1" y="-6.7" width="468.1" height="433.7"/>
			</defs>
			<clipPath id="SVGID_14_">
				<use xlink:href="#SVGID_13_"  style="overflow:visible;"/>
			</clipPath>
			<g class="st9">
				<path class="st2" d="M114.3,195.7c-14.2-12.2-27.9-25.1-26.3-43.1c1-9.1,4.2-18,9.2-25.7c2.9-4.8,6.9-8.9,9.4-13.9
					c2.9-6.2,5-7,8.5-12.9c5.2-8.5,12.9-15.8,24-17.8c0,0,40.7-8.9,54.4,20.7"/>
			</g>
		</g>
	</g>
	<g>
		<g>
			<defs>
				<rect id="SVGID_15_" x="-42.1" y="-6.7" width="468.1" height="433.7"/>
			</defs>
			<clipPath id="SVGID_16_">
				<use xlink:href="#SVGID_15_"  style="overflow:visible;"/>
			</clipPath>
			<g class="st10">
				<ellipse class="st2" cx="122.4" cy="203.5" rx="8.5" ry="10.6"/>
			</g>
		</g>
	</g>
	<g>
		<g>
			<defs>
				<rect id="SVGID_17_" x="-42.1" y="-6.7" width="468.1" height="433.7"/>
			</defs>
			<clipPath id="SVGID_18_">
				<use xlink:href="#SVGID_17_"  style="overflow:visible;"/>
			</clipPath>
			<g class="st11">
				<path class="st2" d="M247.7,82.3c0,0-3.1-23.6-26.1-27c-22.9-3.5-22.3-16.2-53.6,0"/>
			</g>
		</g>
	</g>
	<g>
		<g>
			<defs>
				<rect id="SVGID_19_" x="-42.1" y="-6.7" width="468.1" height="433.7"/>
			</defs>
			<clipPath id="SVGID_20_">
				<use xlink:href="#SVGID_19_"  style="overflow:visible;"/>
			</clipPath>
			<g class="st12">
				<path class="st2" d="M142.2,81.2c0,0,2.9-22.4,25.9-25.9"/>
			</g>
		</g>
	</g>
	<g>
		<g>
			<defs>
				<rect id="SVGID_21_" x="-42.1" y="-6.7" width="468.1" height="433.7"/>
			</defs>
			<clipPath id="SVGID_22_">
				<use xlink:href="#SVGID_21_"  style="overflow:visible;"/>
			</clipPath>
			<g class="st13">
				<path class="st2" d="M215.6,107.8c0,0,18.3-9.9,59.2,7.1"/>
			</g>
		</g>
	</g>
	<g>
		<g>
			<defs>
				<rect id="SVGID_23_" x="-42.1" y="-6.7" width="468.1" height="433.7"/>
			</defs>
			<clipPath id="SVGID_24_">
				<use xlink:href="#SVGID_23_"  style="overflow:visible;"/>
			</clipPath>
			<g class="st14">
				<path class="st2" d="M167.9,107.8c0,0-32.3-13.1-64.8,10.8"/>
			</g>
		</g>
	</g>
	<g>
		<g>
			<defs>
				<rect id="SVGID_25_" x="-42.1" y="-6.7" width="468.1" height="433.7"/>
			</defs>
			<clipPath id="SVGID_26_">
				<use xlink:href="#SVGID_25_"  style="overflow:visible;"/>
			</clipPath>
			<g class="st15">
				<path class="st2" d="M255.4,138.4c1.3,7.3,6,13.9,13.1,17.6c12.1,7,16.1,22,10.6,27.4"/>
			</g>
		</g>
	</g>
	<g>
		<g>
			<defs>
				<rect id="SVGID_27_" x="-42.1" y="-6.7" width="468.1" height="433.7"/>
			</defs>
			<clipPath id="SVGID_28_">
				<use xlink:href="#SVGID_27_"  style="overflow:visible;"/>
			</clipPath>
			<g class="st16">
				<path class="st2" d="M124.7,138.4c-1.3,7.3-6,13.9-13.1,17.6c-12.1,7-16.1,22-10.6,27.4"/>
			</g>
		</g>
	</g>
	<g>
		<g>
			<defs>
				<rect id="SVGID_29_" x="-42.1" y="-6.7" width="468.1" height="433.7"/>
			</defs>
			<clipPath id="SVGID_30_">
				<use xlink:href="#SVGID_29_"  style="overflow:visible;"/>
			</clipPath>
			<g class="st17">
				<path class="st18" d="M203.9,150.3c1.9-0.4,3.8-0.8,5.8-0.8c3.5-0.2,7.7,0.4,11.7,0.6c2.1,0,4.4,0.2,6.5,0.8
					c1.9,0.4,3.8,1,5.2,1.5l5,1.7l-5.2-0.6c-1.5-0.2-3.3-0.4-5.2-0.4c-1.9,0-3.8,0-5.8,0.6c-4.2,1-8.3,1.4-11.1,2.1
					c-1.5,0.4-2.9,1-4.2,1.7c-2.1,0.8-4.4-0.4-5-2.1C200.8,153,201.8,151.1,203.9,150.3L203.9,150.3L203.9,150.3z"/>
			</g>
		</g>
	</g>
	<g>
		<g>
			<defs>
				<rect id="SVGID_31_" x="-42.1" y="-6.7" width="468.1" height="433.7"/>
			</defs>
			<clipPath id="SVGID_32_">
				<use xlink:href="#SVGID_31_"  style="overflow:visible;"/>
			</clipPath>
			<g class="st19">
				<path class="st18" d="M175.2,157.3c-1.3-0.6-2.7-1.2-4.2-1.7c-2.5-0.8-6.9-1.2-11.1-2.1c-1.9-0.4-3.8-0.6-5.8-0.6
					c-1.9,0-3.8,0.2-5.2,0.4l-5.2,0.6l5-1.7c1.5-0.6,3.3-1,5.2-1.5c2.1-0.6,4.2-0.8,6.5-0.8c4,0,8.1-0.8,11.7-0.6
					c1.9,0.2,4,0.4,5.8,0.8c2.1,0.8,3.1,2.7,2.3,4.6C179.3,156.9,177,158.1,175.2,157.3L175.2,157.3L175.2,157.3z"/>
			</g>
		</g>
	</g>
	<g>
		<g>
			<defs>
				<rect id="SVGID_33_" x="-42.1" y="-6.7" width="468.1" height="433.7"/>
			</defs>
			<clipPath id="SVGID_34_">
				<use xlink:href="#SVGID_33_"  style="overflow:visible;"/>
			</clipPath>
			<g class="st20">
				<path class="st21" d="M183.7,197.7c0,0,6.3,6,12.1,0"/>
			</g>
		</g>
	</g>
	<g>
		<g>
			<defs>
				<rect id="SVGID_35_" x="-42.1" y="-6.7" width="468.1" height="433.7"/>
			</defs>
			<clipPath id="SVGID_36_">
				<use xlink:href="#SVGID_35_"  style="overflow:visible;"/>
			</clipPath>
			<g class="st22">
				<path class="st18" d="M238.8,166.6c1.7-1.4,2.9-3.1,3.8-5c0,0-4.6,3.9-7.5,3.9"/>
			</g>
		</g>
	</g>
	<g>
		<g>
			<defs>
				<rect id="SVGID_37_" x="-42.1" y="-6.7" width="468.1" height="433.7"/>
			</defs>
			<clipPath id="SVGID_38_">
				<use xlink:href="#SVGID_37_"  style="overflow:visible;"/>
			</clipPath>
			<g class="st23">
				<path class="st18" d="M233.1,165c1.9-1.2,3.3-2.7,4.4-4.6c-1.9,1.4-4,2.1-6.5,2.3"/>
			</g>
		</g>
	</g>
	<g>
		<g>
			<defs>
				<rect id="SVGID_39_" x="-42.1" y="-6.7" width="468.1" height="433.7"/>
			</defs>
			<clipPath id="SVGID_40_">
				<use xlink:href="#SVGID_39_"  style="overflow:visible;"/>
			</clipPath>
			<g class="st24">
				<path class="st18" d="M235.4,170.8c-2.3-1.7-4.8-3.3-7.5-4.6c-2.5-1.2-5.4-1.7-8.1-1.7c-5.6,0-10.4,4.6-12.7,9.9l-0.4-1.4
					c2.9,2.5,6.7,4.3,10.6,5c-4.4,0-8.5-1-12.3-3.1c-0.4-0.2-0.6-0.8-0.4-1.2v-0.2c1-3.1,2.7-6,5-8.5c2.5-2.5,5.8-4.3,9.6-4.8
					c3.8-0.4,7.3,0.2,10.8,1.4c3.1,1.2,6.3,2.7,9.2,4.6c1.5,1,1.9,2.7,0.8,4.1c-1,1.4-2.9,1.7-4.4,0.8L235.4,170.8L235.4,170.8z"/>
			</g>
		</g>
	</g>
	<g>
		<g>
			<defs>
				<rect id="SVGID_41_" x="-42.1" y="-6.7" width="468.1" height="433.7"/>
			</defs>
			<clipPath id="SVGID_42_">
				<use xlink:href="#SVGID_41_"  style="overflow:visible;"/>
			</clipPath>
			<g class="st25">
				<path class="st18" d="M240.6,169.7c-0.6,1.2-1.3,2.1-2.3,2.9c-0.8,0.6-1.7,1.2-2.7,1.7c-1.7,0.8-3.5,1.4-5.6,1.7
					c1.5-1.2,2.5-2.3,3.3-3.9c0.4-0.6,0.6-1.4,0.8-2.1c0.2-0.6,0.2-1.5,0-1.5c0.4-1.5,2.1-2.5,3.8-2.3
					C239.8,166.4,240.8,167.9,240.6,169.7L240.6,169.7L240.6,169.7z"/>
			</g>
		</g>
	</g>
	<g>
		<g>
			<defs>
				<rect id="SVGID_43_" x="-42.1" y="-6.7" width="468.1" height="433.7"/>
			</defs>
			<clipPath id="SVGID_44_">
				<use xlink:href="#SVGID_43_"  style="overflow:visible;"/>
			</clipPath>
			<g class="st26">
				<path class="st18" d="M228.3,167.5c0,3.7-3.1,6.8-7.1,6.8s-7.1-2.9-7.1-6.6l0,0c0-3.7,3.1-6.8,7.1-6.8
					C225,161,228.3,163.9,228.3,167.5L228.3,167.5z"/>
			</g>
		</g>
	</g>
	<g>
		<g>
			<defs>
				<rect id="SVGID_45_" x="-42.1" y="-6.7" width="468.1" height="433.7"/>
			</defs>
			<clipPath id="SVGID_46_">
				<use xlink:href="#SVGID_45_"  style="overflow:visible;"/>
			</clipPath>
			<g class="st27">
				
					<ellipse transform="matrix(0.9999 -1.092578e-02 1.092578e-02 0.9999 -1.8085 2.4657)" class="st28" cx="224.8" cy="166.8" rx="1.7" ry="1.5"/>
			</g>
		</g>
	</g>
	<g>
		<g>
			<defs>
				<rect id="SVGID_47_" x="-42.1" y="-6.7" width="468.1" height="433.7"/>
			</defs>
			<clipPath id="SVGID_48_">
				<use xlink:href="#SVGID_47_"  style="overflow:visible;"/>
			</clipPath>
			<g class="st29">
				<path class="st18" d="M144.7,166.6c-1.7-1.4-2.9-3.1-3.8-5c0,0,4.6,3.9,7.5,3.9"/>
			</g>
		</g>
	</g>
	<g>
		<g>
			<defs>
				<rect id="SVGID_49_" x="-42.1" y="-6.7" width="468.1" height="433.7"/>
			</defs>
			<clipPath id="SVGID_50_">
				<use xlink:href="#SVGID_49_"  style="overflow:visible;"/>
			</clipPath>
			<g class="st30">
				<path class="st18" d="M150.1,165c-1.9-1.2-3.3-2.7-4.4-4.6c1.9,1.4,4,2.1,6.5,2.3"/>
			</g>
		</g>
	</g>
	<g>
		<g>
			<defs>
				<rect id="SVGID_51_" x="-42.1" y="-6.7" width="468.1" height="433.7"/>
			</defs>
			<clipPath id="SVGID_52_">
				<use xlink:href="#SVGID_51_"  style="overflow:visible;"/>
			</clipPath>
			<g class="st31">
				<path class="st18" d="M144.1,166.2c2.9-1.7,6-3.3,9.2-4.6c3.3-1.2,7.1-1.7,10.8-1.4c3.8,0.6,7.1,2.1,9.6,4.8
					c2.3,2.5,4.2,5.2,5,8.5v0.2c0.2,0.4,0,1-0.4,1.2c-3.8,2.1-7.9,3.1-12.3,3.1c4-0.8,7.5-2.5,10.6-5l-0.4,1.4
					c-2.3-5.2-7.1-9.7-12.7-9.9c-2.9,0-5.6,0.6-8.1,1.7c-2.7,1.4-5.2,2.9-7.5,4.6l0,0c-1.5,1-3.3,0.8-4.4-0.6
					C142.4,169.3,142.6,167.3,144.1,166.2L144.1,166.2z"/>
			</g>
		</g>
	</g>
	<g>
		<g>
			<defs>
				<rect id="SVGID_53_" x="-42.1" y="-6.7" width="468.1" height="433.7"/>
			</defs>
			<clipPath id="SVGID_54_">
				<use xlink:href="#SVGID_53_"  style="overflow:visible;"/>
			</clipPath>
			<g class="st32">
				<path class="st18" d="M148.9,168.3c-0.2,0-0.2,1,0,1.5c0.2,0.8,0.4,1.4,0.8,2.1c0.8,1.5,2.1,2.7,3.3,3.9
					c-1.9-0.2-3.8-0.8-5.6-1.7c-1-0.4-1.9-1-2.7-1.7c-1-0.8-1.9-1.7-2.3-2.9c-0.4-1.5,0.6-3.1,2.5-3.5
					C146.8,165.8,148.5,167,148.9,168.3L148.9,168.3L148.9,168.3z"/>
			</g>
		</g>
	</g>
	<g>
		<g>
			<defs>
				<rect id="SVGID_55_" x="-42.1" y="-6.7" width="468.1" height="433.7"/>
			</defs>
			<clipPath id="SVGID_56_">
				<use xlink:href="#SVGID_55_"  style="overflow:visible;"/>
			</clipPath>
			<g class="st33">
				<path class="st18" d="M155.1,167.5c0,3.7,3.1,6.8,7.1,6.8s7.1-2.9,7.1-6.6l0,0c0-3.7-3.1-6.8-7.1-6.8
					C158.3,161,155.1,163.9,155.1,167.5L155.1,167.5z"/>
			</g>
		</g>
	</g>
	<g>
		<g>
			<defs>
				<rect id="SVGID_57_" x="-42.1" y="-6.7" width="468.1" height="433.7"/>
			</defs>
			<clipPath id="SVGID_58_">
				<use xlink:href="#SVGID_57_"  style="overflow:visible;"/>
			</clipPath>
			<g class="st34">
				
					<ellipse transform="matrix(9.379659e-03 -1 1 9.379659e-03 -8.6286 325.1271)" class="st28" cx="159.8" cy="166.9" rx="1.5" ry="1.7"/>
			</g>
		</g>
	</g>
</g>
<text transform="matrix(0.967 0 0 1 316.8984 240.0752)" class="st18 st35 st36">SULUU</text>
<text transform="matrix(0.9856 0 0 1 399.4805 342.7842)" class="st18 st35 st37">Online</text>
</svg>
