<?xml version="1.0" standalone="no"?>
<!DOCTYPE svg PUBLIC "-//W3C//DTD SVG 20010904//EN"
 "http://www.w3.org/TR/2001/REC-SVG-20010904/DTD/svg10.dtd">
<svg version="1.0" xmlns="http://www.w3.org/2000/svg"
 width="1280.000000pt" height="1278.000000pt" viewBox="0 0 1280.000000 1278.000000"
 preserveAspectRatio="xMidYMid meet">
<g transform="translate(0.000000,1278.000000) scale(0.100000,-0.100000)"
fill="#000000" stroke="none">
<path d="M6358 12428 c-8 -7 -111 -140 -227 -295 -117 -156 -214 -283 -216
-283 -2 0 -2 6 1 14 3 8 -2 17 -13 20 -10 3 -31 19 -48 34 -61 57 -147 123
-188 143 -39 20 -41 20 -28 3 17 -22 -145 140 -238 239 -34 37 -72 72 -82 78
-28 15 -117 0 -145 -25 -13 -12 -86 -154 -162 -316 -178 -378 -197 -416 -206
-402 -4 7 -2 12 3 12 22 0 10 18 -18 30 -16 6 -44 23 -62 36 -18 13 -36 21
-41 18 -4 -3 -123 76 -263 175 -140 100 -263 181 -273 181 -31 0 -109 -30
-125 -48 -8 -9 -35 -102 -60 -207 -26 -104 -67 -275 -92 -380 -25 -104 -47
-190 -49 -192 -1 -2 -164 69 -362 157 -197 88 -368 160 -378 160 -27 0 -110
-56 -124 -82 -6 -14 -15 -162 -22 -373 -6 -192 -13 -368 -16 -391 l-5 -41
-392 88 c-354 79 -395 86 -423 74 -39 -16 -74 -60 -74 -93 0 -23 112 -713 126
-771 l5 -24 -408 4 c-224 2 -417 0 -429 -4 -24 -9 -58 -52 -67 -87 -7 -26 -9
-20 175 -490 55 -140 104 -265 108 -276 8 -21 2 -23 -213 -64 -583 -112 -599
-116 -624 -144 -46 -54 -41 -66 197 -436 121 -187 221 -345 223 -351 1 -6
-171 -79 -382 -164 -211 -85 -390 -160 -397 -166 -21 -17 -32 -70 -22 -99 5
-14 140 -156 300 -316 160 -161 288 -296 285 -300 -3 -5 -163 -115 -356 -244
-373 -250 -390 -265 -357 -314 8 -13 167 -127 353 -251 186 -125 344 -233 351
-240 11 -10 -42 -69 -292 -326 -267 -275 -306 -318 -306 -345 0 -17 8 -38 18
-47 9 -8 193 -86 407 -172 215 -87 393 -159 397 -161 4 -3 -43 -82 -104 -177
-316 -491 -355 -555 -361 -593 l-6 -39 337 -64 c185 -35 385 -73 445 -84 59
-11 107 -24 107 -28 0 -5 -69 -190 -154 -411 -85 -222 -157 -418 -161 -436
l-7 -32 359 -2 c197 -1 333 -4 303 -8 -30 -4 -50 -7 -43 -8 34 -5 280 -34 291
-35 6 0 12 -9 12 -20 0 -36 -121 -730 -136 -782 -13 -45 -13 -51 2 -62 12 -9
25 -8 56 3 43 15 460 105 481 103 6 -1 1 -4 -13 -9 l-25 -7 28 -12 c32 -12
147 -14 285 -5 72 6 92 10 95 23 10 44 37 -494 37 -740 0 -111 9 -123 67 -89
33 19 348 160 359 160 3 0 2 -5 -1 -10 -10 -16 41 -30 110 -30 39 0 97 10 151
26 49 15 118 34 154 44 l65 18 13 -42 c41 -134 155 -607 154 -637 -6 -99 39
-115 109 -41 43 45 278 214 250 179 -12 -15 -10 -18 15 -28 53 -20 151 -6 234
35 107 52 243 124 256 135 8 6 15 2 22 -12 6 -12 69 -143 140 -291 72 -147
128 -274 126 -281 -3 -7 0 -31 5 -53 9 -33 16 -40 41 -44 23 -4 36 2 60 27 17
17 28 38 26 46 -3 8 30 51 80 104 49 52 84 82 82 71 -2 -14 5 -22 27 -28 73
-22 171 15 276 104 113 97 177 145 209 158 21 9 29 18 25 28 -13 35 32 -20
200 -242 127 -168 174 -238 169 -250 -4 -9 2 -32 12 -52 16 -29 24 -34 56 -34
33 0 40 4 57 38 12 24 16 43 11 53 -6 10 8 40 46 99 30 47 53 76 52 65 -3 -18
4 -20 50 -23 98 -6 148 33 315 243 35 44 85 95 113 114 27 18 48 37 46 42 -1
5 1 9 4 9 3 0 99 -82 213 -182 156 -137 206 -187 206 -205 1 -13 15 -37 32
-54 29 -29 33 -31 66 -20 29 10 36 18 46 54 9 35 8 44 -5 53 -13 10 -12 19 10
75 14 35 25 57 25 48 1 -13 9 -15 55 -8 29 4 63 12 74 18 44 23 105 110 173
245 76 148 140 228 195 242 26 7 26 8 9 20 -55 40 15 3 413 -224 30 -17 42
-30 42 -47 0 -14 13 -34 30 -49 l30 -25 43 18 c39 17 42 21 45 61 3 34 -1 48
-16 59 -17 14 -18 21 -8 61 7 31 11 38 14 23 3 -21 4 -21 47 -6 85 29 134 103
180 278 38 145 59 201 97 249 35 47 93 85 132 88 13 1 22 6 19 11 -7 11 -2 10
229 -66 165 -54 188 -64 188 -83 0 -15 12 -26 39 -39 l39 -17 37 27 c22 17 34
34 30 42 -3 8 -5 27 -5 43 0 20 -6 31 -20 35 -13 4 -20 14 -19 28 1 17 2 18 6
4 4 -15 10 -13 45 15 64 50 87 113 99 265 19 257 34 309 108 376 49 44 120 67
215 68 54 1 64 3 41 9 -28 7 -28 8 -5 9 14 1 78 -4 143 -11 106 -11 118 -14
123 -33 4 -15 18 -25 47 -32 40 -11 43 -10 73 18 30 29 31 33 21 71 -5 22 -16
42 -23 45 -8 3 -14 9 -14 15 0 5 4 7 9 4 5 -3 18 14 30 39 26 55 28 157 6 290
-18 106 -19 214 -4 270 7 27 28 57 62 90 59 57 120 82 282 115 131 28 197 51
191 67 -9 23 9 14 19 -9 8 -18 19 -24 55 -26 45 -3 46 -2 68 43 l22 45 -23 35
c-15 23 -30 35 -47 36 l-25 1 25 7 c42 12 33 86 -34 282 -60 179 -69 240 -41
306 38 90 103 141 260 207 109 46 171 80 207 114 23 21 26 28 15 41 -10 14
-10 14 5 3 12 -10 26 -10 61 -1 41 10 46 14 52 46 6 31 2 40 -26 69 -17 18
-37 30 -44 28 -6 -3 -18 3 -26 13 -13 16 -12 17 4 4 52 -41 24 42 -64 190 -85
143 -108 195 -116 257 -12 102 40 189 168 282 171 124 199 147 229 192 18 25
33 58 34 72 1 19 10 28 39 40 31 12 37 19 37 45 0 22 -9 36 -34 56 -19 14 -38
24 -44 23 -10 -3 -152 109 -152 120 0 3 9 -3 20 -13 11 -10 23 -15 26 -12 4 4
-29 44 -72 90 -107 113 -139 172 -138 257 0 92 26 138 154 276 132 142 163
195 164 278 1 44 -3 60 -11 58 -23 -4 -14 6 32 38 57 39 58 63 5 90 -21 11
-44 20 -50 20 -24 0 -330 172 -323 182 3 7 1 8 -5 4 -7 -4 -20 -2 -29 4 -15 9
-15 11 -2 7 13 -4 8 11 -18 61 -32 60 -35 73 -30 125 6 62 52 173 107 252 17
24 46 77 65 117 40 83 47 165 19 224 -14 29 -19 33 -32 22 -9 -7 6 18 33 56
44 61 47 70 32 81 -9 6 -124 44 -256 84 -265 79 -325 99 -298 100 9 1 17 2 17
4 0 1 -7 20 -15 42 -29 80 -18 145 60 362 53 150 49 257 -11 314 -21 20 -27
21 -34 9 -20 -32 -8 3 22 64 l32 65 -19 35 c-22 40 3 35 -328 66 -211 21 -328
37 -278 39 17 1 21 4 13 14 -32 39 -33 173 -2 339 13 67 12 164 -1 212 -6 21
-29 58 -52 83 -38 42 -42 43 -55 26 -12 -16 -13 -15 -7 12 4 17 13 52 21 79
15 54 18 95 8 121 -14 35 -49 36 -325 5 -283 -31 -330 -35 -327 -22 1 4 -6 39
-15 79 -9 40 -17 98 -17 130 0 100 -20 226 -44 279 -26 56 -109 126 -120 101
-3 -6 -5 38 -4 98 1 68 -3 119 -11 132 -14 27 -41 43 -71 43 -12 0 -146 -40
-298 -89 -303 -98 -333 -107 -314 -94 9 7 7 22 -12 69 -14 32 -37 102 -51 154
-33 121 -63 187 -105 227 -41 40 -89 61 -99 44 -4 -6 -16 44 -26 111 -10 68
-24 134 -32 146 -18 30 -72 53 -104 45 -13 -4 -136 -70 -274 -148 -307 -175
-325 -184 -306 -162 7 10 9 17 3 17 -5 0 -40 58 -77 130 -37 71 -82 149 -100
173 -39 52 -121 100 -134 79 -5 -9 -24 29 -55 113 -25 70 -46 130 -46 135 0
18 -62 59 -100 65 -52 9 -49 11 -272 -188 -227 -201 -327 -287 -310 -265 8 10
9 18 3 22 -5 4 -39 44 -75 91 -95 123 -116 144 -171 176 -57 33 -70 36 -61 14
14 -38 -9 -5 -89 128 -116 189 -114 187 -190 187 -34 0 -68 -6 -77 -12z
m-1608 -744 c0 -3 -13 4 -30 16 -16 12 -30 24 -30 26 0 3 14 -4 30 -16 17 -12
30 -24 30 -26z m31 -21 c13 -16 12 -17 -3 -4 -17 13 -22 21 -14 21 2 0 10 -8
17 -17z m6467 -8060 c-10 -2 -26 -2 -35 0 -10 3 -2 5 17 5 19 0 27 -2 18 -5z
m-955 -940 c-7 -2 -19 -2 -25 0 -7 3 -2 5 12 5 14 0 19 -2 13 -5z"/>
<path d="M11965 6080 c10 -11 20 -20 22 -20 2 0 -2 9 -9 20 -7 11 -17 20 -22
20 -5 0 -1 -9 9 -20z"/>
</g>
</svg>
