<?xml version="1.0" encoding="utf-8"?>
<!-- Generator: Adobe Illustrator 21.0.0, SVG Export Plug-In . SVG Version: 6.00 Build 0)  -->
<svg version="1.1" id="Outlined" xmlns="http://www.w3.org/2000/svg" xmlns:xlink="http://www.w3.org/1999/xlink" x="0px" y="0px"
	 viewBox="0 0 28 28" style="enable-background:new 0 0 28 28;" xml:space="preserve">
<style type="text/css">
	.st0{fill:#F4E7D7;}
</style>
<title>arrow-up</title>
<g id="Fill">
	<path class="st0" d="M13.9,28c7.7,0.1,14-6.2,14.1-13.9S21.8,0.1,14.1,0C6.4-0.1,0.1,6.2,0,13.9C-0.1,21.6,6.2,27.9,13.9,28
		C13.9,28,13.9,28,13.9,28z M14.1,2c6.6,0.1,12,5.5,11.9,12.1s-5.5,12-12.1,11.9C7.3,25.9,1.9,20.5,2,13.9C2.1,7.3,7.5,1.9,14.1,2
		C14.1,2,14.1,2,14.1,2z"/>
	<path class="st0" d="M14,12l5.3,5.3l1.4-1.4l-5.2-5.3c-0.8-0.8-2-0.8-2.8,0l-5.4,5.2l1.4,1.4L14,12z"/>
</g>
</svg>
