<?xml version="1.0" encoding="utf-8"?>
<!-- Generator: Adobe Illustrator 21.0.0, SVG Export Plug-In . SVG Version: 6.00 Build 0)  -->
<svg version="1.1" id="Layer_1" xmlns="http://www.w3.org/2000/svg" xmlns:xlink="http://www.w3.org/1999/xlink" x="0px" y="0px"
	 viewBox="0 0 45 50" style="enable-background:new 0 0 45 50;" xml:space="preserve">
<style type="text/css">
	.st0{fill:#2C2F33;}
	.st1{fill:#300016;}
</style>
<path class="st0" d="M16.8,29.1v-8c0-0.3-0.2-0.7-0.5-0.9c-0.8-0.5-1.3-1.4-1.3-2.3V9.6c0-3.6,3-6.5,6.7-6.5h1.8
	c3.7,0,6.7,2.9,6.7,6.5V18c0,0.9-0.5,1.8-1.3,2.3c-0.3,0.2-0.5,0.5-0.5,0.9v8c0,0.5,0.3,1,0.8,1.3c1.1,0.5,6.8,3.3,12,7.5
	c0.7,0.6,1.1,1.4,1.1,2.3v5.7c0,0.6,0.5,1,1.1,1c0.6,0,1.1-0.5,1.1-1v-5.7c0-1.5-0.7-2.9-1.9-3.9c-5-4-10.3-6.7-12-7.5v-7.1
	c1.1-0.9,1.7-2.2,1.7-3.6V9.6c0-4.7-4-8.5-8.8-8.5h-1.8c-4.9,0-8.8,3.8-8.8,8.5V18c0,1.4,0.6,2.7,1.7,3.6v7.1
	c-1.7,0.8-7.1,3.6-12,7.5c-1.2,1-1.9,2.4-1.9,3.9v5.7c0,0.6,0.5,1,1.1,1s1.1-0.5,1.1-1v-5.7c0-0.9,0.4-1.7,1.1-2.3
	c5.2-4.2,10.9-6.9,12-7.5C16.5,30.1,16.8,29.6,16.8,29.1z"/>
<path class="st1" d="M29.2,38.5l-8.6,8.7L17.4,44c-0.4-0.4-1-0.4-1.4,0c-0.4,0.4-0.4,1.1,0,1.5l4,4c0.2,0.2,0.5,0.3,0.7,0.3
	c0.3,0,0.5-0.1,0.7-0.3l9.3-9.5c0.4-0.4,0.4-1.1,0-1.5C30.2,38.1,29.6,38.1,29.2,38.5z"/>
</svg>
