<svg id="svg2" xmlns="http://www.w3.org/2000/svg" viewBox="0 0 400 400"><defs><style>.cls-1{fill:#f4e7d7;}</style></defs><title>copyright</title><g id="layer1"><path id="text2985" class="cls-1" d="M256,56C145.82,56,56,145.82,56,256s89.82,200,200,200,200-89.82,200-200S366.18,56,256,56Zm0,46.5A153.48,153.48,0,1,1,102.5,256,153.13,153.13,0,0,1,256,102.5Zm4.16,51.06c-39.13-.81-78.52,25.44-88.44,64-10.22,33.57-7.39,72.19,10.41,102.63,15.44,24.29,44,38.38,72.59,38,19.64.73,40.17-1.38,58-9.72,8.19-7.77,2.31-20.07,4.59-29.66.73-6.25-5.23-13.29-11.75-10.28-22.35,5.77-47.85,11.69-69.37.72-18.83-11.13-23.77-35.07-23.09-55.41.11-19.8,7.05-42.12,25.72-51.81,19.5-9.91,42.66-4.87,61.66,3.59,8.89,1.16,15.43-7.1,16.94-15,3.12-6.71,6.57-13.29,9.34-20.16C306.81,158.64,283.39,153,260.16,153.56Z" transform="translate(-56 -56)"/></g></svg>