<svg id="Layer_1" data-name="Layer 1" xmlns="http://www.w3.org/2000/svg" viewBox="0 0 89.8 89.8"><defs><style>.cls-1{fill:#561377;}</style></defs><title>instagram</title><path class="cls-1" d="M58.3,23.9H31.5a7.7,7.7,0,0,0-7.7,7.7V58.4a7.7,7.7,0,0,0,7.7,7.7H58.3A7.7,7.7,0,0,0,66,58.4V31.6A7.77,7.77,0,0,0,58.3,23.9Zm-13.4,35A13.9,13.9,0,1,1,58.8,45,13.87,13.87,0,0,1,44.9,58.9ZM59.2,34a3.3,3.3,0,1,1,3.3-3.3A3.33,3.33,0,0,1,59.2,34Z" transform="translate(0 0)"/><path class="cls-1" d="M44.9,37a8,8,0,1,0,8,8A8,8,0,0,0,44.9,37Z" transform="translate(0 0)"/><path class="cls-1" d="M44.9,0A44.9,44.9,0,1,0,89.8,44.9,44.9,44.9,0,0,0,44.9,0Zm27,58.4A13.61,13.61,0,0,1,58.3,72H31.5A13.61,13.61,0,0,1,17.9,58.4V31.6A13.61,13.61,0,0,1,31.5,18H58.3A13.61,13.61,0,0,1,71.9,31.6Z" transform="translate(0 0)"/></svg>