<svg id="Слой_1" data-name="Слой 1" xmlns="http://www.w3.org/2000/svg" xmlns:xlink="http://www.w3.org/1999/xlink" viewBox="0 0 513 513"><defs><style>.cls-1{fill:none;stroke:#e9e9e9;}.cls-1,.cls-3{stroke-miterlimit:10;}.cls-2{clip-path:url(#clip-path);}.cls-3{fill:#fff;stroke:#fff;stroke-width:2px;}</style><clipPath id="clip-path" transform="translate(0.5 0.5)"><rect class="cls-1" width="512" height="512"/></clipPath></defs><title>location</title><g class="cls-2"><path class="cls-3" d="M256,206.9A46.9,46.9,0,1,1,302.9,160,46.9,46.9,0,0,1,256,206.9ZM256,32c-74,0-134.2,58.7-134.2,132.7a141.94,141.94,0,0,0,9.8,50.4h-.1l.6,1.2,1.5,3.3L256,480,377.8,220.9l.6-1.2c.5-1.1,1.1-2.2,1.6-3.4l.4-1.1a134.06,134.06,0,0,0,9.8-50.3C390.2,90.7,330,32,256,32Z" transform="translate(0.5 0.5)"/></g><rect class="cls-1" x="0.5" y="0.5" width="512" height="512"/></svg>