<?xml version="1.0" encoding="utf-8"?>
<!-- Generator: Adobe Illustrator 21.0.0, SVG Export Plug-In . SVG Version: 6.00 Build 0)  -->
<svg version="1.1" id="Capa_1" xmlns="http://www.w3.org/2000/svg" xmlns:xlink="http://www.w3.org/1999/xlink" x="0px" y="0px"
	 viewBox="0 0 30 30" style="enable-background:new 0 0 30 30;" xml:space="preserve">
<style type="text/css">
	.st0{fill:#D2D8D8;}
</style>
<g>
	<path class="st0" d="M6.3,13.6h5.6c0.2,0,0.4-0.2,0.4-0.4c0-0.2-0.2-0.4-0.4-0.4H6.3c-0.2,0-0.4,0.2-0.4,0.4
		C5.9,13.4,6.1,13.6,6.3,13.6z"/>
	<path class="st0" d="M17.5,15.3H6.3c-0.2,0-0.4,0.2-0.4,0.4c0,0.2,0.2,0.4,0.4,0.4h11.2c0.2,0,0.4-0.2,0.4-0.4
		C18,15.5,17.8,15.3,17.5,15.3z"/>
	<path class="st0" d="M17.5,17.9H6.3c-0.2,0-0.4,0.2-0.4,0.4c0,0.2,0.2,0.4,0.4,0.4h11.2c0.2,0,0.4-0.2,0.4-0.4
		C18,18.1,17.8,17.9,17.5,17.9z"/>
	<path class="st0" d="M25.4,3.9l-14.8,0C9.2,3.9,8,5,8,6.4v2.2l-3.5,0C3.1,8.6,2,9.7,2,11.1v9c0,1.4,1.2,2.5,2.6,2.5h2.6v4.2
		c0,0.2,0.1,0.3,0.3,0.4c0.1,0,0.1,0,0.2,0c0.1,0,0.2,0,0.3-0.1l4.2-4.5l7.2,0c1.4,0,2.6-1.1,2.6-2.5v0l2.3,2.5
		c0.1,0.1,0.2,0.1,0.3,0.1c0.1,0,0.1,0,0.2,0c0.2-0.1,0.3-0.2,0.3-0.4v-4.2h0.5c1.4,0,2.6-1.1,2.6-2.5v-9C27.9,5,26.8,3.9,25.4,3.9z
		 M21,20c0,0.9-0.8,1.7-1.7,1.7l-7.4,0c-0.1,0-0.2,0.1-0.3,0.1L8,25.7v-3.6c0-0.2-0.2-0.4-0.4-0.4H4.5c-0.9,0-1.7-0.7-1.7-1.7v-9
		c0-0.9,0.8-1.7,1.7-1.7l3.9,0l0,0c0,0,0,0,0,0l10.8,0c0.9,0,1.7,0.7,1.7,1.7v7.8V20z M27.1,15.4c0,0.9-0.8,1.7-1.7,1.7h-0.9
		c-0.2,0-0.4,0.2-0.4,0.4v3.6l-2.2-2.3v-7.7c0-1.4-1.2-2.5-2.6-2.5l-10.4,0V6.4c0-0.9,0.8-1.7,1.7-1.7l14.8,0c0,0,0,0,0,0
		c0.9,0,1.7,0.7,1.7,1.7L27.1,15.4L27.1,15.4z"/>
</g>
</svg>
