<?xml version="1.0" encoding="utf-8"?>
<!-- Generator: Adobe Illustrator 21.0.0, SVG Export Plug-In . SVG Version: 6.00 Build 0)  -->
<svg version="1.1" id="Layer_1" xmlns="http://www.w3.org/2000/svg" xmlns:xlink="http://www.w3.org/1999/xlink" x="0px" y="0px"
	 viewBox="0 0 20 20" style="enable-background:new 0 0 20 20;" xml:space="preserve">
<style type="text/css">
	.st0{fill:none;stroke:#D2D8D8;stroke-linecap:round;stroke-linejoin:round;}
</style>
<title></title>
<g>
	<polygon class="st0" points="7.4,3.9 2.1,5.3 2.1,18.8 7.4,17.3 	"/>
	<polyline class="st0" points="10.6,4.8 7.4,3.9 7.4,17.3 12.7,18.8 12.7,9.4 	"/>
	<polyline class="st0" points="12.7,9.4 12.7,18.8 18,17.3 18,9.4 	"/>
	<path class="st0" d="M13,3L13,3c1.3-1.3,3.3-1.3,4.6,0l0,0c1.3,1.3,1.3,3.3,0,4.6c0,0,0,0,0,0l-2.3,2.3l0,0l-2.3-2.3
		C11.8,6.3,11.8,4.2,13,3C13,3,13,3,13,3z"/>
	<circle class="st0" cx="15.3" cy="5.2" r="1.5"/>
</g>
</svg>
