<?xml version="1.0" encoding="utf-8"?>
<!-- Generator: Adobe Illustrator 21.0.0, SVG Export Plug-In . SVG Version: 6.00 Build 0)  -->
<svg version="1.1" id="Livello_1" xmlns="http://www.w3.org/2000/svg" xmlns:xlink="http://www.w3.org/1999/xlink" x="0px" y="0px"
	 viewBox="0 0 20 20" style="enable-background:new 0 0 20 20;" xml:space="preserve">
<style type="text/css">
	.st0{fill:#D2D8D8;}
</style>
<title></title>
<path class="st0" d="M18.6,9.5L17,7.9l0,0l-6.3-6.3c-0.4-0.4-1-0.4-1.3,0c0,0,0,0,0,0L3,7.9l0,0L1.4,9.5c-0.2,0.2-0.1,0.4,0,0.6
	c0.2,0.1,0.4,0.1,0.6,0l0.9-0.9v8.6c0,0.5,0.4,0.9,0.9,0.9l0,0h3.7c0.5,0,0.9-0.4,0.9-0.9l0,0v-5.4c0-0.1,0.1-0.1,0.1-0.1h2.7
	c0.1,0,0.1,0.1,0.1,0.1v5.4c0,0.5,0.4,0.9,0.9,0.9l0,0h3.7c0.5,0,0.9-0.4,0.9-0.9l0,0V9.2l0.9,0.9c0.2,0.2,0.4,0.1,0.6,0
	C18.7,9.9,18.7,9.6,18.6,9.5z M16.3,17.7c0,0.1-0.1,0.1-0.1,0.1h-3.7c-0.1,0-0.1-0.1-0.1-0.1v-5.4c0-0.5-0.4-0.9-0.9-0.9H8.6
	c-0.5,0-0.9,0.4-0.9,0.9v5.4c0,0.1-0.1,0.1-0.1,0.1H3.9c-0.1,0-0.1-0.1-0.1-0.1V8.4l6.2-6.2c0.1-0.1,0.1-0.1,0.2,0l6.2,6.2
	L16.3,17.7z"/>
</svg>
