<?xml version="1.0" encoding="utf-8"?>
<!-- Generator: Adobe Illustrator 21.0.0, SVG Export Plug-In . SVG Version: 6.00 Build 0)  -->
<svg version="1.1" id="Слой_1" xmlns="http://www.w3.org/2000/svg" xmlns:xlink="http://www.w3.org/1999/xlink" x="0px" y="0px"
	 viewBox="0 0 20 20" style="enable-background:new 0 0 20 20;" xml:space="preserve">
<style type="text/css">
	.st0{display:none;}
	.st1{display:inline;}
	.st2{fill:none;stroke:#000000;stroke-width:16;stroke-linecap:round;stroke-linejoin:round;stroke-miterlimit:10;}
	.st3{fill:#D2D8D8;}
</style>
<g id="layer" class="st0">
	<g class="st1">
		<path class="st2" d="M60,113.5c0,0-2.4-32.6,5.4-38.4c23.4-17.5,100.8-8.8,115.9,16.1c12.7,20.9,4.4,72.5-12.2,86.9
			c-7,6.1-36.1,8.3-36.1,8.3c-78.7-1.2-150.3-31.8-204-81.3l-14.8-14.7c-49.7-53.4-80.5-124.6-81.7-202.9c0,0,2.3-29,8.4-35.9
			c14.6-16.5,66.4-24.7,87.4-12.1c25.1,15,33.9,92,16.2,115.3c-5.9,7.7-38.6,5.4-38.6,5.4"/>
		<path class="st2" d="M60.1,113.4C20.5,100.3-14.6,77.5-42.4,47.9l14.4,14.3C-57.9,34.5-80.8-0.5-94-39.8"/>
	</g>
</g>
<g id="layer_copy">
	<path class="st3" d="M17.9,13.6c-0.4-0.7-1.5-1-2.2-1.1c-1.1-0.2-2.6-0.2-3.3,0.3c-0.2,0.2-0.4,0.5-0.4,1.2c0,0.1,0,0.2,0,0.2
		c-1.2-0.5-2.3-1.2-3.3-2.1l-0.4-0.4c-0.9-1-1.6-2.1-2.1-3.3c0.1,0,0.2,0,0.2,0c0.6,0,1-0.1,1.2-0.4C8.2,7.4,8.3,5.9,8,4.8
		C7.9,4.1,7.6,3,6.9,2.6C6.2,2.2,5.1,2.3,4.7,2.3C3.8,2.5,3,2.8,2.7,3.2C2.4,3.5,2.3,4.5,2.3,4.9c0,0,0,0,0,0c0.1,3.3,1.3,6.5,3.6,9
		c0,0,0,0,0,0l0.6,0.6c0,0,0,0,0,0c2.5,2.3,5.7,3.5,9,3.6c0,0,0,0,0,0c0,0,0,0,0,0c0.4,0,1.4-0.1,1.8-0.5c0.4-0.4,0.7-1.1,0.9-2
		C18.3,15.4,18.4,14.3,17.9,13.6z M17.5,15.7c-0.1,0.7-0.4,1.3-0.6,1.6c-0.1,0.1-0.7,0.2-1.3,0.3c-3.2-0.1-6.2-1.3-8.6-3.4l-0.6-0.6
		C4.2,11.2,3,8.1,2.9,5c0-0.6,0.2-1.2,0.3-1.3C3.5,3.4,4.1,3.1,4.8,3c0.7-0.1,1.4,0,1.8,0.2C6.9,3.4,7.2,4,7.4,4.9
		C7.6,6,7.5,7.2,7.2,7.7C7,7.7,6.4,7.8,5.9,7.8c-0.1,0-0.1,0-0.2,0c-0.1,0-0.1,0.1-0.1,0.1C5.5,7.9,5.4,8,5.4,8.1c0,0.1,0,0.1,0,0.2
		c0.5,1.4,1.2,2.7,2.2,3.8c0,0,0,0,0,0.1c0.1,0.1,0.2,0.2,0.3,0.3c0.1,0.1,0.2,0.2,0.3,0.3c0,0,0,0,0.1,0c1.1,1,2.4,1.7,3.8,2.2
		c0.1,0,0.1,0.1,0.2,0c0.1,0,0.2,0,0.2-0.1c0,0,0,0,0,0c0,0,0,0,0,0c0,0,0.1-0.1,0.1-0.1c0-0.1,0-0.1,0-0.2c0-0.6,0-1.2,0.1-1.3
		c0.5-0.3,1.6-0.4,2.8-0.2c0.9,0.2,1.5,0.5,1.7,0.8C17.6,14.3,17.6,14.9,17.5,15.7z"/>
</g>
</svg>
