<?xml version="1.0" encoding="utf-8"?>
<!-- Generator: Adobe Illustrator 21.0.0, SVG Export Plug-In . SVG Version: 6.00 Build 0)  -->
<svg version="1.1" id="Capa_1" xmlns="http://www.w3.org/2000/svg" xmlns:xlink="http://www.w3.org/1999/xlink" x="0px" y="0px"
	 viewBox="0 0 20 20" style="enable-background:new 0 0 20 20;" xml:space="preserve">
<style type="text/css">
	.st0{fill:#D2D8D8;}
</style>
<g>
	<path class="st0" d="M17.1,3.5h-1.6v-1c0-0.4-0.3-0.8-0.7-0.8h-1c-0.4,0-0.7,0.3-0.7,0.8v1h-6v-1c0-0.4-0.3-0.8-0.7-0.8h-1
		C5,1.8,4.6,2.2,4.6,2.6v1H2.9c-0.7,0-1.2,0.6-1.2,1.3v12c0,0.7,0.6,1.3,1.2,1.3h14.1c0.7,0,1.2-0.6,1.2-1.3v-12
		C18.3,4.1,17.8,3.5,17.1,3.5z M13.8,2.6h0.9v1.3V5h-0.9V3.9V2.6z M5.4,2.6h0.9v1.3V5H5.4V3.9L5.4,2.6L5.4,2.6z M3,4.3h1.7V5
		c0,0.4,0.3,0.8,0.7,0.8h1c0.4,0,0.7-0.3,0.7-0.8V4.3h6V5c0,0.4,0.3,0.8,0.7,0.8h1c0.4,0,0.7-0.3,0.7-0.8V4.3h1.7
		c0.3,0,0.5,0.2,0.5,0.5V7H2.4V4.9C2.4,4.6,2.7,4.3,3,4.3z M17.1,17.4H3c-0.3,0-0.5-0.2-0.5-0.5V7.8h15.1v9.1
		C17.6,17.2,17.4,17.4,17.1,17.4z M5.7,10c0,0.2-0.2,0.4-0.4,0.4H4.2c-0.2,0-0.4-0.2-0.4-0.4c0-0.2,0.2-0.4,0.4-0.4h1.2
		C5.6,9.6,5.7,9.8,5.7,10z M9.2,10c0,0.2-0.2,0.4-0.4,0.4H7.6c-0.2,0-0.4-0.2-0.4-0.4c0-0.2,0.2-0.4,0.4-0.4h1.2
		C9,9.6,9.2,9.8,9.2,10z M12.7,10c0,0.2-0.2,0.4-0.4,0.4h-1.2c-0.2,0-0.4-0.2-0.4-0.4c0-0.2,0.2-0.4,0.4-0.4h1.2
		C12.5,9.6,12.7,9.8,12.7,10z M16.1,10c0,0.2-0.2,0.4-0.4,0.4h-1.2c-0.2,0-0.4-0.2-0.4-0.4c0-0.2,0.2-0.4,0.4-0.4h1.2
		C16,9.6,16.1,9.8,16.1,10z M5.7,12.6c0,0.2-0.2,0.4-0.4,0.4H4.2c-0.2,0-0.4-0.2-0.4-0.4c0-0.2,0.2-0.4,0.4-0.4h1.2
		C5.6,12.2,5.7,12.4,5.7,12.6z M9.2,12.6C9.2,12.8,9,13,8.8,13H7.6c-0.2,0-0.4-0.2-0.4-0.4c0-0.2,0.2-0.4,0.4-0.4h1.2
		C9,12.2,9.2,12.4,9.2,12.6z M12.7,12.6c0,0.2-0.2,0.4-0.4,0.4h-1.2c-0.2,0-0.4-0.2-0.4-0.4c0-0.2,0.2-0.4,0.4-0.4h1.2
		C12.5,12.2,12.7,12.4,12.7,12.6z M16.1,12.6c0,0.2-0.2,0.4-0.4,0.4h-1.2c-0.2,0-0.4-0.2-0.4-0.4c0-0.2,0.2-0.4,0.4-0.4h1.2
		C16,12.2,16.1,12.4,16.1,12.6z M5.7,15.3c0,0.2-0.2,0.4-0.4,0.4H4.2c-0.2,0-0.4-0.2-0.4-0.4s0.2-0.4,0.4-0.4h1.2
		C5.6,14.9,5.7,15,5.7,15.3z M9.2,15.3c0,0.2-0.2,0.4-0.4,0.4H7.6c-0.2,0-0.4-0.2-0.4-0.4s0.2-0.4,0.4-0.4h1.2
		C9,14.9,9.2,15,9.2,15.3z M12.7,15.3c0,0.2-0.2,0.4-0.4,0.4h-1.2c-0.2,0-0.4-0.2-0.4-0.4s0.2-0.4,0.4-0.4h1.2
		C12.5,14.9,12.7,15,12.7,15.3z M16.1,15.3c0,0.2-0.2,0.4-0.4,0.4h-1.2c-0.2,0-0.4-0.2-0.4-0.4s0.2-0.4,0.4-0.4h1.2
		C16,14.9,16.1,15,16.1,15.3z"/>
</g>
</svg>
