<?xml version="1.0" encoding="utf-8"?>
<!-- Generator: Adobe Illustrator 21.0.0, SVG Export Plug-In . SVG Version: 6.00 Build 0)  -->
<svg version="1.1" id="Layer_1" xmlns="http://www.w3.org/2000/svg" xmlns:xlink="http://www.w3.org/1999/xlink" x="0px" y="0px"
	 viewBox="0 0 20 20" style="enable-background:new 0 0 20 20;" xml:space="preserve">
<style type="text/css">
	.st0{fill:#D2D8D8;stroke:#D2D8D8;stroke-miterlimit:10;}
</style>
<g>
	<path class="st0" d="M10.3,1.7c-3.6,0-6.4,2.9-6.4,6.4s6.4,10.4,6.4,10.4s6.4-6.8,6.4-10.4S13.8,1.7,10.3,1.7z M10.3,17.7
		c-0.6-0.6-1.7-1.9-2.8-3.4c-2-2.7-3.1-4.8-3.1-6.2c0-3.2,2.6-5.9,5.9-5.9s5.9,2.7,5.9,5.9c0,1.3-1.1,3.5-3.1,6.2
		C12,15.8,10.9,17,10.3,17.7z"/>
	<path class="st0" d="M10.3,4.8c-1.7,0-3,1.3-3,3s1.3,3,3,3s3-1.3,3-3C13.3,6.2,12,4.8,10.3,4.8z M12,9.6c-0.4,0.4-1.1,0.7-1.7,0.7
		C9.6,10.3,9,10,8.6,9.6C8.1,9.1,7.8,8.5,7.8,7.8s0.3-1.3,0.7-1.7C9,5.6,9.6,5.4,10.3,5.4s1.3,0.3,1.7,0.7c0.4,0.4,0.7,1.1,0.7,1.7
		S12.5,9.1,12,9.6z"/>
</g>
</svg>
