<?xml version="1.0" encoding="utf-8"?>
<!-- Generator: Adobe Illustrator 21.0.0, SVG Export Plug-In . SVG Version: 6.00 Build 0)  -->
<svg version="1.1" id="Слой_1" xmlns="http://www.w3.org/2000/svg" xmlns:xlink="http://www.w3.org/1999/xlink" x="0px" y="0px"
	 viewBox="0 0 408 403" style="enable-background:new 0 0 408 403;" xml:space="preserve">
<style type="text/css">
	.st0{clip-path:url(#SVGID_2_);}
	.st1{fill:#FFFFFF;stroke:#F4E7D7;stroke-width:2;stroke-miterlimit:10;}
</style>
<title>phone</title>
<g>
	<defs>
		<rect id="SVGID_1_" x="-59.3" y="-47" width="512" height="512"/>
	</defs>
	<clipPath id="SVGID_2_">
		<use xlink:href="#SVGID_1_"  style="overflow:visible;"/>
	</clipPath>
	<g class="st0">
		<path class="st1" d="M303,258.3c-6.9-4-15.5-4-22.3,0.1l-34.9,20.8c-7.8,4.7-17.6,4.1-24.8-1.5c-12.4-9.7-32.3-26-49.7-43.3
			c-17.4-17.3-33.6-37.3-43.3-49.7c-5.6-7.1-6.2-17-1.5-24.7l20.8-34.9c4.1-6.9,4.2-15.5,0.1-22.4L96.1,15.2
			C91.2,6.7,81.2,2.5,71.7,4.9c-9.3,2.3-21.3,7.8-33.9,20.4c-39.5,39.5-60.5,106.1,88,254.6s215.1,127.6,254.6,88
			c12.6-12.6,18.1-24.7,20.4-34c2.3-9.5-1.8-19.3-10.2-24.3C369.6,297.3,324.1,270.7,303,258.3z"/>
	</g>
</g>
</svg>
