<?xml version="1.0" encoding="utf-8"?>
<!-- Generator: Adobe Illustrator 21.0.0, SVG Export Plug-In . SVG Version: 6.00 Build 0)  -->
<svg version="1.1" id="Capa_1" xmlns="http://www.w3.org/2000/svg" xmlns:xlink="http://www.w3.org/1999/xlink" x="0px" y="0px"
	 viewBox="0 0 75 75" style="enable-background:new 0 0 75 75;" xml:space="preserve">
<style type="text/css">
	.st0{fill:#2C2F33;}
</style>
<g>
	<path class="st0" d="M73.8,70.7l-18-18c4.8-5.5,7.7-12.8,7.7-20.7c0-17.4-14.1-31.5-31.5-31.5C14.7,0.5,0.5,14.7,0.5,32.1
		s14.2,31.5,31.5,31.5c7.9,0,15.1-2.9,20.7-7.7l18,18c0.4,0.4,1,0.7,1.6,0.7s1.1-0.2,1.6-0.7C74.7,73,74.7,71.6,73.8,70.7z
		 M4.9,32.1c0-15,12.2-27.1,27.1-27.1s27.1,12.2,27.1,27.1S47,59.2,32,59.2C17.1,59.2,4.9,47,4.9,32.1z"/>
</g>
</svg>
