<?xml version="1.0" encoding="utf-8"?>
<!-- Generator: Adobe Illustrator 21.0.0, SVG Export Plug-In . SVG Version: 6.00 Build 0)  -->
<svg version="1.1" id="Layer_1" xmlns="http://www.w3.org/2000/svg" xmlns:xlink="http://www.w3.org/1999/xlink" x="0px" y="0px"
	 viewBox="0 0 95 70" style="enable-background:new 0 0 95 70;" xml:space="preserve">
<style type="text/css">
	.st0{fill:#2C2F33;}
	.st1{fill:#300016;}
</style>
<g>
	<g>
		<path class="st0" d="M63.5,66.2v-8c0-2.3-1-4.4-2.7-5.8c-6.6-5.4-13.8-9.3-16.3-10.6v-9.6c1.5-1.3,2.4-3.2,2.4-5.3V15.2
			c0-6.8-5.5-12.4-12.4-12.4h-2.5c-6.8,0-12.4,5.6-12.4,12.4v11.7c0,2,0.9,3.9,2.4,5.3v9.6c-2.6,1.3-9.7,5.1-16.3,10.6
			c-1.7,1.4-2.7,3.5-2.7,5.8v8c0,1,0.8,1.8,1.8,1.8h57.1C62.7,68.1,63.5,67.2,63.5,66.2z M59.8,64.4H6.4v-6.2c0-1.2,0.5-2.3,1.4-3
			c7.1-5.9,14.9-9.8,16.3-10.5c0.8-0.4,1.3-1.2,1.3-2.1V31.3c0-0.6-0.3-1.2-0.8-1.5c-1-0.6-1.6-1.7-1.6-2.9V15.2
			c0-4.8,3.9-8.7,8.7-8.7h2.5c4.8,0,8.7,3.9,8.7,8.7v11.7c0,1.2-0.6,2.2-1.6,2.9c-0.5,0.3-0.8,0.9-0.8,1.5v11.3
			c0,0.9,0.5,1.7,1.3,2.1c1.5,0.7,9.2,4.6,16.3,10.5c0.9,0.7,1.4,1.8,1.4,3L59.8,64.4L59.8,64.4z"/>
		<path class="st1" d="M65.1,40.5l7.6-7.3H87c3.4,0,6.2-2.8,6.2-6.2V10.7c0-3.4-2.8-6.2-6.2-6.2H60.4c-3.5,0-6.2,2.8-6.2,6.2V27
			c0,3.4,2.8,6.2,6.2,6.2H62v5.9c0,0.7,0.4,1.4,1.1,1.7c0.2,0.1,0.5,0.1,0.7,0.1C64.3,40.9,64.7,40.8,65.1,40.5z M60.4,29.5
			c-1.4,0-2.5-1.1-2.5-2.5V10.7c0-1.4,1.1-2.5,2.5-2.5H87c1.4,0,2.5,1.1,2.5,2.5V27c0,1.4-1.1,2.5-2.5,2.5H71.9
			c-0.5,0-0.9,0.2-1.3,0.5l-5,4.8v-3.5c0-1-0.8-1.8-1.8-1.8L60.4,29.5L60.4,29.5z"/>
		<path class="st1" d="M64.4,17.5H83c1,0,1.8-0.8,1.8-1.8S84,13.8,83,13.8H64.4c-1,0-1.8,0.8-1.8,1.8C62.5,16.7,63.4,17.5,64.4,17.5
			z"/>
		<path class="st1" d="M83,24.2c1,0,1.8-0.8,1.8-1.8c0-1-0.8-1.8-1.8-1.8H64.4c-1,0-1.8,0.8-1.8,1.8c0,1,0.8,1.8,1.8,1.8H83z"/>
	</g>
</g>
</svg>
