<svg id="Layer_1" data-name="Layer 1" xmlns="http://www.w3.org/2000/svg" viewBox="0 0 414.8 418.14"><defs><style>.cls-1{fill:#300016;}</style></defs><title>whatsapp</title><path class="cls-1" d="M198.9.2C88.5,5.5,1.4,97.5,1.7,208a205.2,205.2,0,0,0,22.6,93.5L2.3,408.4a8.1,8.1,0,0,0,9.8,9.5l104.7-24.8a206.47,206.47,0,0,0,89.1,21.6c112.9,1.7,207-87.9,210.5-200.7C420.1,93.1,320.3-5.5,198.9.2Zm125,322a162.55,162.55,0,0,1-187.1,30.7l-14.6-7.3L58,360.8l13.5-65.6-7.2-14.1a162.55,162.55,0,0,1,30-188.5A162.35,162.35,0,1,1,323.9,322.2Z" transform="translate(-1.7 0.04)"/><path class="cls-1" d="M309.7,252.4l-40.2-11.5a15,15,0,0,0-14.8,3.9l-9.8,10a14.68,14.68,0,0,1-15.9,3.4c-19-7.7-59-43.2-69.2-61A14.54,14.54,0,0,1,161,181l8.6-11.1a14.68,14.68,0,0,0,1.8-15.2l-16.9-38.2a15,15,0,0,0-23.4-5.4C119.9,120.6,106.6,135,105,151c-2.9,28.1,9.2,63.6,54.9,106.2,52.7,49.2,95,55.7,122.4,49.1,15.6-3.8,28.1-18.9,35.9-31.3A15.06,15.06,0,0,0,309.7,252.4Z" transform="translate(-1.7 0.04)"/></svg>