<svg id="Layer_1" data-name="Layer 1" xmlns="http://www.w3.org/2000/svg" viewBox="0 0 414.8 418.15"><defs><style>.cls-1{fill:#561377;}</style></defs><title>whatsapp</title><path class="cls-1" d="M197.2.24C86.8,5.54-.3,97.54,0,208a205.2,205.2,0,0,0,22.6,93.5L.6,408.44a8.1,8.1,0,0,0,9.8,9.5l104.7-24.8a206.47,206.47,0,0,0,89.1,21.6c112.9,1.7,207-87.9,210.5-200.7C418.4,93.14,318.6-5.46,197.2.24Zm125,322a162.55,162.55,0,0,1-187.1,30.7l-14.6-7.3-64.2,15.2,13.5-65.6-7.2-14.1a162.41,162.41,0,1,1,259.6,41.1Z" transform="translate(0 0)"/><path class="cls-1" d="M308,252.44l-40.2-11.5a15,15,0,0,0-14.8,3.9l-9.8,10a14.68,14.68,0,0,1-15.9,3.4c-19-7.7-59-43.2-69.2-61a14.54,14.54,0,0,1,1.2-16.2l8.6-11.1a14.68,14.68,0,0,0,1.8-15.2l-16.9-38.2a15,15,0,0,0-23.4-5.4c-11.2,9.5-24.5,23.9-26.1,39.9-2.9,28.1,9.2,63.6,54.9,106.2,52.7,49.2,95,55.7,122.4,49.1,15.6-3.8,28.1-18.9,35.9-31.3a15.06,15.06,0,0,0-8.5-22.6Z" transform="translate(0 0)"/></svg>